<svg xmlns="http://www.w3.org/2000/svg" viewBox="0 0 1658 449"><defs><style>.cls-1,.cls-14{fill:#6db802;}.cls-2{fill:#fecd00;}.cls-3{fill:#a51619;}.cls-4{fill:#dfc33c;}.cls-5{fill:#ff6501;}.cls-6{fill:#f66;}.cls-7{fill:#9aa166;}.cls-8{fill:#f2f2f2;}.cls-9{fill:#7f2880;}.cls-10{fill:#989933;}.cls-11{fill:#9ec551;}.cls-12{fill:#cc3301;}.cls-13{fill:#927e19;}.cls-14{font-size:233px;stroke:#297f54;stroke-miterlimit:10;font-family:BrushScriptMT, Brush Script MT;letter-spacing:0.05em;}.cls-15{letter-spacing:0.05em;}.cls-16{letter-spacing:0.05em;}.cls-17{letter-spacing:0.05em;}.cls-18{letter-spacing:0.05em;}.cls-19{letter-spacing:0.05em;}.cls-20{letter-spacing:0.05em;}.cls-21{letter-spacing:0.05em;}.cls-22{letter-spacing:0.05em;}.cls-23{letter-spacing:0.05em;}.cls-24{letter-spacing:0.05em;}</style></defs><g id="Capa_2" data-name="Capa 2"><g id="Capa_1-2" data-name="Capa 1"><path class="cls-1" d="M192.28,191.27c23,17.59,18.66,50.55,30.74,58.17,11.12,7-36.78,5-58.9-13.82C138.64,213.93,151.74,197,137.42,180,123.73,163.73,159.43,166.17,192.28,191.27Z"/><path class="cls-1" d="M61.12,136.14c5.1,7.48.51,16.87,3.35,20.32,2.61,3.17-11.45-2.09-16.15-9.86-5.43-8.94.16-12.7-2.41-19.17C43.46,121.25,53.85,125.46,61.12,136.14Z"/><path class="cls-1" d="M197.72,157.25c5.1,7.48.51,16.88,3.35,20.32,2.61,3.17-11.45-2.09-16.15-9.85-5.43-8.95.16-12.71-2.41-19.18C180.06,142.37,190.45,146.57,197.72,157.25Z"/><path class="cls-1" d="M91.07,143.64c-3.32,8.42-13.69,10-14.94,14.23-1.15,3.94-4.74-10.58-1-18.84,4.35-9.51,10.62-7,14.53-12.81C93.42,120.72,95.8,131.63,91.07,143.64Z"/><ellipse class="cls-2" cx="73.01" cy="211.13" rx="28.25" ry="51.62" transform="matrix(0.97, -0.25, 0.25, 0.97, -50.95, 25.28)"/><ellipse class="cls-3" cx="138.95" cy="215.82" rx="32.87" ry="23.53" transform="translate(-115.47 249.79) rotate(-64.83)"/><path class="cls-4" d="M124.84,231.23c-9.41,2.37-33-4.6-33-4.6C91.45,88.23,142.66,58.62,171,58c42.84-1,66.22,34.58,71.61,161.17l-18.84,2.4C219,198.11,212.31,78,179.58,79.31c-15.44.62-64.59,4.16-54.76,144.88Z"/><path class="cls-1" d="M227.67,164.75c-3.32,8.42-13.69,10-14.94,14.24-1.15,3.94-4.74-10.59-1-18.85,4.35-9.51,10.62-7,14.53-12.8C230,141.83,232.4,152.74,227.67,164.75Z"/><ellipse class="cls-5" cx="217.85" cy="216.99" rx="36.5" ry="36.36"/><ellipse class="cls-6" cx="304.99" cy="212.3" rx="22.37" ry="22.29"/><ellipse class="cls-7" cx="260.24" cy="216.99" rx="22.37" ry="22.29"/><path class="cls-4" d="M9.39,210.45c-2.29,4.8,6.86,13.9,14.22,32.8,11.87,30.46,13.07,63.11,28.48,72.64C71,327.56,122,335.69,181.68,334.28c44.86-1.06,113-2.67,124.76-19.13,17.42-24.43,27.87-52.34,37.43-86.91,3.31-12,10.89-25.15,4.62-30.5-7.63-6.52-29.49,2-35.31,4.79-55.53,26.3-146.91,31.06-188.33,28.7C63,227.69,14.12,200.52,9.39,210.45Z"/><ellipse class="cls-8" cx="255.38" cy="204.05" rx="6.5" ry="6.47"/><ellipse class="cls-8" cx="209.61" cy="197.05" rx="11.78" ry="11.73"/><ellipse class="cls-8" cx="58.56" cy="176.12" rx="12.91" ry="5.81" transform="translate(-126.32 192.44) rotate(-76.65)"/><ellipse class="cls-8" cx="423.93" cy="7.04" rx="7.07" ry="7.04"/><ellipse class="cls-9" cx="30.62" cy="156" rx="11.78" ry="12.9"/><ellipse class="cls-9" cx="29.44" cy="193.53" rx="8.24" ry="8.21"/><ellipse class="cls-9" cx="9.42" cy="175.94" rx="9.42" ry="9.38"/><ellipse class="cls-8" cx="142.91" cy="198.23" rx="11.04" ry="6.9" transform="translate(-97.22 243.55) rotate(-64.9)"/><ellipse class="cls-10" cx="309.64" cy="171.75" rx="11.1" ry="20.39" transform="translate(14.23 366.96) rotate(-62.47)"/><ellipse class="cls-11" cx="272.02" cy="174.77" rx="10.57" ry="8.24" transform="translate(-10.22 332.49) rotate(-61.92)"/><ellipse class="cls-11" cx="151.91" cy="144.27" rx="8.23" ry="10.57" transform="translate(-54.85 110.5) rotate(-34.25)"/><ellipse class="cls-9" cx="260.24" cy="147.79" rx="10.6" ry="11.73"/><ellipse class="cls-12" cx="292.04" cy="136.06" rx="11.78" ry="11.73"/><path class="cls-13" d="M58.55,277Q75.2,293,91.17,309.79c1.33,1.4,3.45-.72,2.12-2.12q-16-16.77-32.62-32.84c-1.39-1.34-3.51.78-2.12,2.13Z"/><path class="cls-13" d="M76.11,244l63.05,56.77,17.71,15.94c1.43,1.29,3.56-.82,2.12-2.12L96,257.88l-17.8-16c-1.43-1.29-3.56.82-2.12,2.12Z"/><path class="cls-13" d="M143.43,250l35.62,26.15c11.55,8.47,23.14,16.9,34.45,25.69q9.47,7.35,18.59,15.11c1.46,1.25,3.6-.86,2.12-2.12-21.93-18.75-45.62-35.38-68.86-52.44l-20.41-15c-1.56-1.14-3.05,1.46-1.51,2.59Z"/><path class="cls-13" d="M202.64,246.4,265,291.56l17.81,12.91c1.57,1.13,3.07-1.47,1.52-2.6L222,256.72l-17.82-12.91c-1.57-1.13-3.06,1.47-1.51,2.59Z"/><path class="cls-13" d="M257.59,242l45.11,32.76c1.56,1.13,3.06-1.47,1.51-2.59L259.1,239.44c-1.56-1.13-3.06,1.47-1.51,2.59Z"/><path class="cls-13" d="M297.22,228.68a75.45,75.45,0,0,1,18.95,14.1c1.36,1.38,3.48-.74,2.13-2.12a78,78,0,0,0-19.57-14.57c-1.71-.89-3.23,1.69-1.51,2.59Z"/><path class="cls-13" d="M285.56,285a192.77,192.77,0,0,1-27.26,25.24c-1.51,1.16,0,3.76,1.52,2.59a196.11,196.11,0,0,0,27.86-25.71c1.28-1.44-.83-3.57-2.12-2.12Z"/><path class="cls-13" d="M316.1,226.45c-14.63,13.46-30.76,25.13-47.12,36.39q-25.53,17.58-51.63,34.34-14.79,9.49-29.73,18.73c-1.64,1-.14,3.61,1.51,2.59Q215.8,302,242,284.7c17-11.23,33.93-22.54,50.22-34.72a329.47,329.47,0,0,0,26.05-21.41c1.42-1.31-.7-3.43-2.12-2.12Z"/><path class="cls-13" d="M238.49,244.6q-21.41,13.77-42.58,27.89t-42.12,28.56q-11.88,8.19-23.69,16.5c-1.57,1.1-.07,3.7,1.52,2.59q20.81-14.64,41.86-28.94t42.32-28.27Q227.86,255,240,247.19c1.62-1,.12-3.64-1.51-2.59Z"/><path class="cls-13" d="M171.17,248.94c-10.68,9.51-22.41,17.74-34.41,25.48-12.38,8-25,15.61-37.5,23.35L77.19,311.43c-1.64,1-.14,3.61,1.51,2.59l39.48-24.42c12.2-7.55,24.45-15.06,36.11-23.43a234,234,0,0,0,19-15.11c1.45-1.29-.68-3.4-2.12-2.12Z"/><path class="cls-13" d="M108.83,249.47a266,266,0,0,1-44.28,31.32q-6.72,3.79-13.64,7.19c-1.73.85-.22,3.44,1.51,2.59a270.49,270.49,0,0,0,46.47-29q6.17-4.78,12.06-9.93c1.46-1.28-.67-3.39-2.12-2.13Z"/><path class="cls-13" d="M78,236.72A64.91,64.91,0,0,1,55.47,254c-1.75.81-.23,3.39,1.51,2.59a66.79,66.79,0,0,0,23.16-17.71c1.23-1.47-.88-3.6-2.12-2.12Z"/><text class="cls-14" transform="translate(406.1 283.7) rotate(-3)">L<tspan class="cls-15" x="150.35" y="6.16">o</tspan><tspan class="cls-16" x="235.26" y="10.48">c</tspan><tspan class="cls-17" x="315.25" y="15.37">a</tspan><tspan class="cls-18" x="421.76" y="19.87">l</tspan><tspan class="cls-19" x="487.14" y="23.62"> </tspan><tspan class="cls-20" x="564.46" y="29.39">F</tspan><tspan class="cls-16" x="707.54" y="35.24">r</tspan><tspan class="cls-21" x="787.54" y="39.99">u</tspan><tspan class="cls-22" x="889.17" y="44.37">i</tspan><tspan class="cls-23" x="954.55" y="47.92">t</tspan><tspan class="cls-24" x="1024.8" y="51.98">s</tspan></text></g></g></svg>