<svg xmlns="http://www.w3.org/2000/svg" xmlns:xlink="http://www.w3.org/1999/xlink" viewBox="0 0 1740.85 707.37"><defs><style>.cls-1{fill:#fdfefe;}.cls-2{fill:#b9e3f0;}.cls-3{fill:#006837;}.cls-4{fill:#5ec1a8;}.cls-5{fill:#64696b;}.cls-6{fill:#f59b61;}.cls-7{fill:#bbbebf;}.cls-8{fill:#4379b7;}.cls-9{fill:#a4a7a9;}.cls-10{fill:#222f5b;}.cls-11{fill:#e8e9e7;}.cls-12{fill:#d6d6d6;}.cls-13{fill:url(#Degradado_sin_nombre_10);}.cls-14{fill:#39b54a;}.cls-15{fill:#574b4a;}.cls-16{fill:#f06728;}.cls-17{fill:#91d3da;}.cls-18{fill:#221416;}.cls-19{fill:#d53e32;}.cls-20{fill:#fff;}.cls-21{fill:#6db802;}.cls-22{fill:#fecd00;}.cls-23{fill:#a51619;}.cls-24{fill:#dfc33c;}.cls-25{fill:#ff6501;}.cls-26{fill:#f66;}.cls-27{fill:#9aa166;}.cls-28{fill:#f2f2f2;}.cls-29{fill:#7f2880;}.cls-30{fill:#989933;}.cls-31{fill:#9ec551;}.cls-32{fill:#cc3301;}.cls-33{fill:#927e19;}</style><linearGradient id="Degradado_sin_nombre_10" x1="503.9" y1="487" x2="918.9" y2="487" gradientUnits="userSpaceOnUse"><stop offset="0" stop-color="#39b54a"/><stop offset="1" stop-color="#39b54a"/></linearGradient></defs><g id="Capa_2" data-name="Capa 2"><g id="Capa_1-2" data-name="Capa 1"><path class="cls-1" d="M0,439.38c1.25.78,1.29,1.55,0,2.32Z"/><path class="cls-2" d="M1587.22,392.4c2.07,0-4.33-6.2-4.32-4.95,0,6.25,13.23,5.41,16,10,0,13.7-.33,40.36-.2,54.06,0,3.34-.72,4.89-4.35,5.93-18.49,5.32-25.88,15.6-25.86,35.1,0,12,.07,23.93.11,35.9-10.93.06-21.88,1.38-32.74-.87-.21-9.25-.21-9.25-9.27-9.25l-8.59,0c-10.18,0-10.18,0-9.71,10.13l-7.37.05a30.78,30.78,0,0,1,.17-3.47c.82-5.22-1.12-7.29-6.6-6.81a120.11,120.11,0,0,1-16.21,0c-3.74-.17-5.16,1-5,4.91s1,5.81,5.27,5.65c5.59-.21,11.2,0,16.8,0q0,5.26-.11,10.53c-5.74,0-11.49.09-17.23-.08-4-.11-4.72,2.14-4.68,5.48s.13,6.18,4.7,6c5.74-.17,11.49,0,17.23-.06v10.61c-5.77,0-11.55,0-17.32,0-3.11,0-4.74,1.22-4.55,4.43.16,2.67-.89,5.3,3.66,6.33,3.87.88,7.85-1,11.42,1.19a185.8,185.8,0,0,0-21.86,16.1c.41-5-1.87-6.6-6.79-6.15a105.2,105.2,0,0,1-15,0c-3.91-.21-5.36,1-5.4,5.13-.05,4.38,1.42,5.69,5.66,5.47,5.93-.29,11.9,0,17.85,0L1455,605.37c-3.47,0-7-.08-10.42-.07-2.89,0-6.45-.44-5.91,4,.39,3.17.45,7.28,5.83,6.45,1.86-.29,3.83.14,5.75.23a26.64,26.64,0,0,1-2.74,10.31c-4,0-8.35-1.53-8.23,5.68.09,5.89,2.89,6.08,7.08,5.69,0,1.59.07,3.19.11,4.78q-11.61,0-23.21,0c-8.12,0-8.12,0-8.07,8.07q0,7.61,0,15.21l0,35.92c-15.93.08-31.87.12-47.8.28-3.06,0-4-1.26-3.94-4.13.2-6.7.24-13.41.35-20.12,11.79-.13,23.57-.44,35.36-.3,4.23,0,5.66-1.08,5.65-5.51-.13-60.69,0-121.38-.11-182.06,0-16.58-9.08-28.1-25.16-32.2-3.37-.87-5.13-1.92-5.07-6,.26-18.17.16-36.34,0-54.5,0-3.43.6-4.88,4.6-5.45,14.75-2.07,25.35-15.3,25.6-31.18.1-6.57.2-13.15,0-19.71-.18-4.76,1.82-6.59,6.25-5.38a30,30,0,0,0,8,.69h128.79c4.63,0,9.22.08,13.83-.9s7.09.53,7.05,6.06c-.08,9-1.39,18.21,1.14,27.09,2.24,7.89,5.49,15.27,13.71,18.94m-96.17,33.5c3.46,0,6.93-.07,10.38,0,4.07.11,3.35-2.83,3.37-5.21s.7-5.37-3.36-5.19a122.81,122.81,0,0,1-17.77-1c-4.26-.44-6.78.89-6.75,6s2.74,5.6,6.64,5.39C1482.31,420.68,1484.82,420.79,1487.31,420.77Zm-.23,54.59c-2.89,0-5.79.16-8.66,0-3.53-.25-5.36.68-5.19,4.73.15,3.57.68,6,5.06,5.78,5.58-.21,11.18-.21,16.75,0,4.1.17,6.29-.47,6.24-5.52s-2.45-5.23-6.11-5C1492.48,475.48,1489.78,475.36,1487.08,475.36Zm-34.62,75.38v0c3.46,0,6.92-.09,10.38,0,4.05.13,3.45-2.74,3.42-5.16s.78-5.44-3.3-5.24c-5.59.27-11.09-.49-16.62-1-4.64-.46-6.9,1.2-7,6.49-.07,5.69,3.25,5,6.74,5C1448.22,550.71,1450.34,550.74,1452.46,550.74Zm35.14-162.39c-3.09,0-6.18.13-9.26,0-3.8-.2-5.1,1.54-5.09,5.19s1,5.45,5,5.33c5.59-.18,11.2-.23,16.79,0,4.09.17,6.34-.4,6.26-5.5-.07-4.93-2.43-5.27-6.13-5C1492.63,388.49,1490.11,388.36,1487.6,388.35Zm.11,118.38c2.89,0,5.81-.22,8.67,0,4.07.39,4.85-1.6,4.77-5.13-.07-3.26-.21-5.59-4.54-5.37-6,.3-11.95.23-17.92,0-4-.14-5.49,1.45-5.44,5.42,0,3.75,1.52,5.26,5.21,5.06C1481.54,506.61,1484.63,506.74,1487.71,506.73Zm33.85-86c3.28,0,6.57.15,9.84,0,5.75-.32,3-4.8,3.29-7.51.34-2.9-1.35-4.19-4.39-3.46-5,1.19-10,.83-15,.34-3.75-.37-6.92-1.53-7.28,4.1-.33,5.06,1.43,7.2,6.57,6.61A64.38,64.38,0,0,1,1521.56,420.78Zm-34.32,21c3.29,0,6.58-.17,9.85.05,4.24.28,4-2.46,4-5.28s.19-5.41-4-5.24a153.54,153.54,0,0,1-18-.07c-5.56-.42-5.23,3.71-5.6,6.77-.48,4.05,2.88,3.76,5.61,3.78S1484.54,441.78,1487.24,441.77Zm-34.85-43c3.27,0,6.56-.19,9.82,0,4.13.3,4.2-2.21,4.1-5.15-.09-2.7.44-5.52-3.88-5.38-6.35.2-12.72.16-19.08,0-3.2-.07-3.66,1.56-3.89,4.28-.39,4.63,1,6.92,6,6.24A51.8,51.8,0,0,1,1452.39,398.8Zm.29,87c3.28,0,6.56-.15,9.83,0,3.81.22,3.92-2.17,3.77-4.86-.15-2.52.92-5.71-3.57-5.63-6.55.12-13.1.07-19.65,0-2.39,0-3.34.93-3.57,3.38-.56,6.2,0,7,6.26,7C1448.06,485.79,1450.37,485.78,1452.68,485.78Zm68.6-32.42c-3.08,0-6.17.16-9.23,0-4.25-.28-3.92,2.49-4,5.28s-.17,5.41,4,5.24c5.57-.24,11.16-.16,16.73,0,3.61.09,6.1,0,6.15-5s-2.11-5.85-6.22-5.5C1526.29,453.52,1523.78,453.35,1521.28,453.36Zm-33.39,10.42c2.89,0,5.8-.22,8.66.05,4.23.41,4.62-1.91,4.61-5.26s-.4-5.54-4.63-5.3c-5.37.3-10.77.18-16.16,0-3.6-.1-6.13,0-6.18,5s2,5.9,6.2,5.55C1482.87,463.61,1485.39,463.79,1487.89,463.78Zm-34.52-10.43c-3.47,0-6.94.06-10.41,0-4-.09-3.39,2.81-3.38,5.23s-.71,5.28,3.36,5.24c6.56-.08,13.11-.09,19.66,0,2.75.05,3.58-1.13,3.76-3.78.29-4.53-.38-7.62-6.06-6.75A47.08,47.08,0,0,1,1453.37,453.35Zm-.74,53.37c3.27,0,6.55-.16,9.81,0,3.74.22,4-2,3.84-4.79-.17-2.49,1-5.72-3.54-5.65-6.54.11-13.08.06-19.62,0-2.33,0-3.39.81-3.62,3.32-.57,6.21,0,7,6.2,7.07Zm.63,54.57c-3.28,0-6.56.16-9.83,0-4.28-.25-3.82,2.61-3.9,5.35-.08,2.94,0,5.35,4.11,5.17,5.57-.23,11.17-.19,16.75,0,3.75.13,6-.23,6.07-5.09.1-5.16-2.26-5.74-6.27-5.43C1457.89,561.44,1455.57,561.3,1453.26,561.29Zm-.07-129.94c-3.28,0-6.56.14-9.83,0-3.76-.2-4,2.12-3.8,4.85.15,2.53-.89,5.71,3.58,5.64,6.55-.11,13.1,0,19.65,0,1.59,0,2.91-.17,3.46-2.2,1.53-5.67-.26-8.19-6.13-8.22C1457.81,431.34,1455.5,431.35,1453.19,431.35Zm-.29,97.38c3.09,0,6.19-.19,9.25,0,4.06.32,4.3-2.09,4.16-5.09-.12-2.66.54-5.56-3.81-5.43-6.36.19-12.73.12-19.09,0-2.6,0-3.7.84-3.93,3.61-.42,5,.74,7.81,6.49,6.9A45.74,45.74,0,0,1,1452.9,528.73Zm0-107.94c3.08,0,6.18-.19,9.24,0,4.06.31,4.28-2.1,4.16-5.09-.11-2.68.5-5.54-3.83-5.42-6.35.19-12.71.1-19.06,0-2.6,0-3.69.86-3.94,3.62-.46,5,.82,7.76,6.51,6.89A47,47,0,0,1,1452.91,420.79Zm68-22c3.27,0,6.55-.18,9.81,0,4.13.29,4.12-2.27,4.07-5.18,0-2.76.37-5.47-3.9-5.34-6.35.2-12.7.11-19,0-2.67,0-3.67,1-3.82,3.71-.25,4.43.21,7.68,6,6.81A48.37,48.37,0,0,1,1521,398.79Zm.4,43c3.28,0,6.56-.09,9.83,0,4.44.15,3.51-3,3.63-5.6s0-5-3.79-4.87c-5.78.17-11.58.23-17.35,0-4.4-.2-5.53,1.71-5.67,5.83-.15,4.74,2.44,4.84,5.83,4.67C1516.33,441.67,1518.84,441.77,1521.35,441.76Zm.34,33.6c-3.09,0-6.18.15-9.26,0-3.26-.2-4.56,1.09-4.34,4.35.2,2.9-.37,6.11,4.08,6.1,6.37,0,12.73,0,19.1,0,2.36,0,3.36-.87,3.59-3.35.58-6.23,0-7.05-6.23-7.08Zm-.55,31.37a86.4,86.4,0,0,1,8.67.06c4.29.42,5.13-1.63,5.1-5.42,0-3.61-.89-5.31-4.86-5.1-5.19.28-10.41.23-15.6,0-4.13-.17-6.39.67-6.48,5.6-.1,5.16,2.77,5,6.23,4.86C1516.51,506.66,1518.83,506.73,1521.14,506.73Z"/><path class="cls-2" d="M340,325.52q0-44.65,0-89.31l.54-2.14c10.7,7,21.71,7.4,33,1.51.1,8.08.36,16.17.23,24.25-.06,3.78.73,5.61,5.06,5.44,8.27-.31,16.57-.25,24.86,0,3.82.11,5-1.23,4.92-5-.19-13.67-.1-27.35-.11-41a42.48,42.48,0,0,1,11.65-.06c0,13.68.1,27.36-.07,41,0,3.7,1,5.15,4.9,5,7.89-.24,15.81-.27,23.7,0,4.11.14,5.27-1.31,5.23-5.3-.15-13.48.05-27,.12-40.45l11.35.09c0,13.53.19,27,.06,40.58,0,3.67.94,5.2,4.87,5.07,7.92-.25,15.86-.28,23.78,0,4.23.16,5.18-1.5,5.15-5.39-.11-13.45.09-26.9.18-40.34l34.49.05q0,45.21,0,90.41c-3.82.8-7.92-.32-11.55,1.72l-2.21.33a6.38,6.38,0,0,0-5,2.65l-.24.15-1,.7-.41.36c-4.29,2.21-6.29,5.85-6.68,10.53a1.38,1.38,0,0,0-.3,1c-2.45,5.08-1.73,10.56-1.77,15.89-.21,28.86-.27,57.72-.38,86.58-2.31,0-4.62,0-6.93-.06-21.26-.88-38.9,7.22-54.05,21.63-1.77,1.69-2.61,4.25-5.29,5.13-7.11,2.32-14.18,4.8-21.27,7.22-.07-2.12-.21-4.24-.21-6.36q0-60.87,0-121.72a31.16,31.16,0,0,0-.17-5.21c-.32-1.94-1.07-3.64-3.54-3.9a235.65,235.65,0,0,0-37.56-.92C363.62,326.44,351.83,327,340,325.52Z"/><path class="cls-2" d="M1148.44,320c1.36-2.13.76-4.51.76-6.78,0-20.48,0-41,0-61.44,0-1.45-.77-3.39.83-4.26s2.83.95,3.93,1.78c7.68,5.79,15.23,11.76,22.84,17.64,2.81,2.17,4.23,4.83,3.8,8.5-.26,2.29.15,4.65-.1,6.94-.52,4.93,1.69,6.27,6.4,6.24,27.64-.18,55.29-.09,82.93-.1,9.67,0,19.34-.17,29,.08,4.62.13,6.73-1.68,5.85-6.09-1.91-9.58,2.65-15.34,10.31-20.24,6.3-4,11.87-9.17,17.72-13.88,2.43-2,3.36-1.2,3.36,1.64q0,10.14,0,20.29l-.06,263.14c-9.85-6.72-20.81-10.64-32.46-12.82.62-4.39-.95-6.23-5.71-6-6.93.41-13.91.15-20.87.17q.15-6.5.31-13c1.49,0,3.14.63,4.23-1l0,0c5.51.16,11,.28,16.52.23,4.89-.05,5.55-2,5.7-6.16.17-4.74-1.61-6.09-6-5.74-3.83.31-7.69.1-11.54.12a54.18,54.18,0,0,1,0-12.79c4.43,0,8.86,0,13.29-.07,1.46,0,3,.3,3.88-1.65,2.53-5.84-.5-10.9-6.75-11-3.46,0-6.93,0-10.4,0a42.59,42.59,0,0,1,0-11.88c3.89-1.7,8-1.07,12-.85,4.49.24,5.55-1.56,5.48-5.73s-.59-6.27-5.62-6.18c-16.78.32-33.57.08-50.35.16a34.52,34.52,0,0,1-9.13-1.07,25.63,25.63,0,0,1-4.92-9.94c1.45-2.71,4.06-1.77,6.22-1.77,19.31-.07,38.63-.22,57.95.1,5.33.09,5.8-2.2,5.86-6.53.07-4.52-.84-6.45-6-6.4-24.33.25-48.67.1-73,.09q-4.26-5.72-8.53-11.44a31.64,31.64,0,0,1,12.22-1.86c4.45.17,10.59,2.9,13.13-4.05,1.3,5.08,1.29,5.06,6.33,4a11.65,11.65,0,0,1,4-.52c15.92,2.53,31.93.44,47.88,1.07,1.3.05,3.22.26,3.43-1.33a25,25,0,0,0,.06-8.58c-.61-2.81-3.54-1.65-5.46-1.66-14.85-.1-29.72.09-44.57-.15-4.55-.07-9.66-3.08-12,4.36.31-4.25-.86-5-4.68-4.43-8.12,1.27-16.39-1.78-24.59.23-4-2-8.29-.89-12.46-1.09l-8.73-4.45c.07-1-.15-2.29-1.18-2.28-9.51.08-19.07-1.52-28.51.87-5,1-6.54-1-6.54-6.11,0-10.26,1-20.55-.6-30.78C1154.1,336.68,1153.09,327.94,1148.44,320ZM1244,339.56c-18.16,0-36.32,0-54.48,0-1.78,0-3.94-.82-5.1,1.55-2.52,5.14.47,10,6.23,10,35.74,0,71.48-.07,107.22.11,4.63,0,5.91-1.37,5.91-5.89s-1.2-6-5.88-5.93C1279.89,339.72,1261.92,339.56,1244,339.56Zm-.41,36.07c18.15,0,36.3-.18,54.44.11,4.89.08,5.75-1.79,5.72-6.06,0-4-.74-5.84-5.38-5.81q-54.15.25-108.3,0c-5.39,0-5.73,2.88-6,6.94-.3,4.55,2.1,4.89,5.66,4.87C1207.63,375.58,1225.58,375.64,1243.54,375.63Z"/><path class="cls-2" d="M268.9,297.45c.11,58.53,0,337.47,0,396"/><path class="cls-3" d="M918.14,588q.06-121.87.09-243.75c0-11.19-.14-22.38-.22-33.56,33.4-.1,181.49.91,214.89.75,0,0,22-3,20,35s-1.83,319.13-1.83,319.13h0c-3.17-3.13-233.17-4.13-233.17-4.13"/><path class="cls-4" d="M1586.26,597.45c.48.28,1.24.45,1.4.85,4.1,10.38,8.57,20.68,7.9,32.24-.1,1.65-.48,3.47.9,4.9.08,2.69.17,5.38.25,8.07-1.68,5-.18,10,0,15.08q-.21,5.25-.4,10.5c-1.35,2.94-.63,6-.57,9-5.19.35-7.36,3.23-7.23,8.31.15,5.92.09,11.84.13,17.75l-.12.76q-33.63-.08-67.26-.16c-2.29,0-4.65.43-6.84-.66,4.57-3,1.8-4.69-1.25-5.75-8.08-2.82-16.63-3.08-25-3.45-11.35-.52-22.74-.22-34.11-.22-2.59,0-5.21.24-5.27-3.49a7.37,7.37,0,0,1,.14-5.27v-.05a101,101,0,0,1,0-23.25,1.9,1.9,0,0,0,0-1l-.87-2.77a21.45,21.45,0,0,0-.06-15.51l.18-7.85c0-1.59-.07-3.19-.11-4.78q.57-5.69,1.15-11.37a26.83,26.83,0,0,0,2.75-10.31l4.74-10.65,7.89-11.53c1.51-1.26,3-2.54,3.64-4.51A187,187,0,0,1,1490,566.22l7.1-2.64c6.35-1.52,12.94-1.69,19.27-2.85,17.51-3.21,32.56,3,47,11.13,8.91,5,15.42,13.15,20.92,21.85-.09.77-.17,1.53-.25,2.3"/><path class="cls-2" d="M1058.62,227c.49,8.46-1.85,8.15,8.66,8.16,13.39,0,13.39,0,13.38,13.42,0,5.79-.11,11.58,0,17.37.11,3.69-1.32,5.1-5.07,5.2-8.86.25-8.81.4-8.89,9,0,4.14,1.6,9.41-6,8.62-2.37-.25-2,2.4-2,4,0,5.41,0,10.81,0,16.21-2.3.09-4.61.26-6.92.26q-59.59,0-119.19,0c-9.06,0-18.12-.2-27.18-.3,0-5-.11-10.06,0-15.08.08-3.23-.14-5.85-4.48-5.46-2,.18-2.55-1.34-2.56-3.07q0-3.19,0-6.38c0-7.75,0-8-7.73-7.8-5,.15-6.45-1.86-6.18-6.51.29-5,.06-10,.07-15.07,0-14.33,0-14.57,14.53-14.31,5.17.1,6.48-1.44,6.46-6.52-.21-39.25-.13-78.49-.11-117.74,0-1.92-.52-4.45.47-5.64,3.3-4,5-8.77,7.43-13.18,1.13-2.07,2.54-2,4.26-2s2.86.85,2.9,2.78c0,1.73,1.29,3,1.83,4.34,1.74,4.29,5.45,7.69,5.31,12.9a177,177,0,0,0,.48,23.72c.88,8.26,1.4,8.21,10,8.46v40.11c-4.47,6.45-5.76,14.15-5.43,21.4.75,16.53,7.7,30.26,21.62,40.12,23.85,16.9,58.82,7.85,70.93-17.09Z"/><path class="cls-5" d="M1448.15,691.21c.06,3.73,2.69,3.49,5.28,3.49,11.37,0,22.76-.3,34.11.22,8.4.37,16.94.63,25,3.45,3,1.06,5.82,2.76,1.24,5.75-16,4-32.26,3.18-48.48,3.18q-229.56,0-459.1-.07-226.93,0-453.87.08-172.67,0-345.34,0a135.55,135.55,0,0,1-28.17-3.21c-4.48-4,0-4.64,2.32-6.09,6.28-.29,12.27-2.75,18.63-2.47,3-.1,6.07,1,8.92-.78l4.89-.11,13.13,0,2.22,0c2.09,0,4.24-.06,6.24-.22,8.41-.68,16.82,3.4,25.16-.12l75.21.17,5.69.22,3.51-.06h3.47l3.51,0,4.6,0,3.52-.05h3.46l3.51,0,4.6,0,3.52-.05,3.45,0h3.52l3.46,0,3.51.07,4.6,0,3.56.13,3.42-.17,3.51.07,4.6,0a20.23,20.23,0,0,0,8-.26l52.09,0c6.43,1.33,12.91,3.39,18.93-1.27a6.4,6.4,0,0,0,6.09,1.55c4.18.14,9.3,3.26,11.3-3.54a3,3,0,0,0,2.7-2.32,19.52,19.52,0,0,0,9.73-3,4.68,4.68,0,0,0,3.6.52l10.14,4.66c1,.89,1.43,2.53,3.16,2.48,2.39,2,4.9,3.22,7.89,1.19l3.38-.32c3,2.39,6.41,1,9.67.9l3.19-.77a27.57,27.57,0,0,0,13.82.67l4.36-.79a34.68,34.68,0,0,0,20.13.11c5.48.13,11,.13,16.43.48a18.89,18.89,0,0,0,7.72-.58c10,2,17.11,5.5,27,4.72,15.78-.33,31.82,2.1,47-4.59,7.78,1.31,15.56,1.76,23.35.07l117.55,0c4.92,1.29,9.93,2.35,14.75,4,3.36,1.12,5.94.3,8.48-1.71.19,2.41,1.83,2.47,3.65,2.23,11.73-.26,23.48.85,35.19-1,5-.78,9.25-4,14.46-3.63q39.15.08,78.32.15c1.5,0,3.15.35,4.18-1.27a23.57,23.57,0,0,0,8.43,1.33c11.51-.08,23,0,34.52,0,9.13,2.88,18.3,5.41,28,4.38,16.35.17,32.79,1.29,48.58-4.58,2.31,0,4.61.13,6.92.13q49.93.09,99.88.14c9.24,2,18.28,5.44,28,4.33,7.15,0,14.33-.35,21.46.13,10.21.69,19.66-2.43,29.28-4.86,1.7,1.89,4,1.25,6,1.22,14.26-.28,28.51-.66,42.76-1,3.48-.08,7-.17,10.43,0,3.61.21,5.35-.92,5.19-4.87-.28-6.36-.18-12.73-.24-19.1a.94.94,0,0,0,.79-.21l-.06.13c-.11,6.71-.15,13.42-.35,20.12-.09,2.87.88,4.17,3.94,4.13,15.93-.16,31.87-.2,47.8-.28,9.42.07,18.85.06,28.27.26C1447.28,695,1448.26,693.78,1448.15,691.21Z"/><path class="cls-2" d="M992.9,34.45c10.44.29,10.11-.11,10.1,10.5,0,8.51.17,17-.06,25.52-.11,3.89.91,5.42,5.13,5.44,12.25,0,12.25.22,12.25,12.34,0,16.82.12,33.65-.08,50.47,0,4.22,1.09,5.61,5.51,5.7,10.87.21,10.86.47,10.87-10.76,0-4.64.25-9.3-.06-13.92-.52-7.75,1.29-14.51,6.39-20.62,1.69-2,.49-6.49,5.28-5.9,1.31.16,2.49,0,3.32,1.63,5.65,10.69,7.71,21.82,7.41,34.08-.73,30.53-.24,61.09-.25,91.64a257,257,0,0,1-28-.09c.41-5.16,1.53-10.38,1.09-15.48-1.53-18.12-9.6-32-25.82-41.63-15.78-9.35-39.33-8.05-53.88,4.43-1.2,1-2.33,2-4,2-1.05-7-.26-14-.24-21.09.08-24.23,0-48.46.07-72.69,4.13-.88,9.64,1.66,12.23-1.3,2.92-3.33.86-8.89,1-13.47.2-7.53,0-17.32-.21-24.85-.07-3.41,28.35-1.93,32-2"/><path class="cls-6" d="M1030.68,217.48a257,257,0,0,0,28,.09c1.93.1,3.86.27,5.78.27,59.37,0,118.74,0,178.11.13,5.15,0,7.23-1.22,8.35-6.63,3.83-18.56,23.66-30.1,43-25.66,18.06,4.16,30.23,23.1,26.38,41.07-3.54,16.53-16.22,28.15-31.75,29.1-17.58,1.06-31.33-8.13-37.25-25.17-1-2.83-2.24-4-5.3-4q-93.12.15-186.24.13a6.49,6.49,0,0,0-1.14.2l-33.36-.06c-15.86-.07-31.72-.11-47.58-.21a38.58,38.58,0,0,1-38.47-32.72c-.64-3.78-.73-7.66-1.07-11.5q0-20.06,0-40.11c.11-1.53.31-3.07.31-4.61q0-44.06,0-88.12c0-20.08-12.4-32.55-32.6-32.57q-137.19-.12-274.37,0C612.34,17.15,600,29.82,600,48.88q0,63.77,0,127.54c0,25.6-16.59,41.9-42.22,41.93-7.92,0-15.84.15-23.76.24l-34.49-.05-34,.07-11.35-.09c-11.29-1-22.58-.74-33.88-.33a42.48,42.48,0,0,0-11.65.06c-7.52-.12-15-.19-22.58-.39-2.31-.06-4.3,1.26-4.43,2.94-.49,6-5.28,9.22-7.95,13.78-11.29,5.89-22.3,5.5-33-1.5a2.78,2.78,0,0,0-1.5-2.68c-8.27-11.73-8.3-21.3-.16-33.2a21.21,21.21,0,0,0,1.42-3,9.94,9.94,0,0,0,2.71-.91C357.6,182.47,376.71,190,382,205c.25,2.89,1.9,3.87,4.68,3.81,7.32-.16,14.64-.18,22-.25l11.4,0,33.95.11,11.4-.18c11.33.63,22.65.38,34,.08l34.54,0c10.05.06,20.17.94,30.13,0,14-1.32,26.9-11.87,26.85-32.81-.11-42.73,0-85.45,0-128.18,0-14.76,6.36-26,18.66-33.89A37.09,37.09,0,0,1,629.92,8q139.56,0,279.13.06c21.42,0,38,17.1,38.27,38.44.09,8.85.38,17.71.58,26.57,0,24.23,0,48.46-.07,72.69,0,7-.81,14.07.24,21.09-1.52,6.29-.76,12.7-.73,19,.1,17.41,11.55,30.77,28.9,31.64C994.34,218.45,1012.53,217.57,1030.68,217.48ZM375.05,203.67a8.27,8.27,0,0,0-.86-2.09c-10.57-13.59-29.14-9.37-35,4.73-1.89,5.24-2.28,10.41.86,15.38,2.78,7.77,9,11.4,16.56,12,7.08.59,13.45-1.92,17.28-8.65C379.41,218.37,379.81,211.13,375.05,203.67Zm910.39-13.93a30.72,30.72,0,0,0-30.75,30.4,31.32,31.32,0,0,0,31.48,31.07c15.57-.19,29.85-14.57,30.13-30.34C1316.6,204.1,1302.49,189.86,1285.44,189.74Z"/><path class="cls-7" d="M147.9,348.45c0,9,0,19-.23,28.34m-.21,11.81c0,19.21.16,38.42,0,57.62,0,3.83.86,7.59.21,11.49-.44,2.68,5.66,8.32,8.56,8.33,9.07,0,18.14.11,27.22,0,3.09-.05,4.53.72,4.51,4.17-.2,25.85-.25,51.7-.34,77.54-18.89-.2-34.11,7.46-44,23.3-4.61,7.4-9,10.42-17.16,7.57-.28-3.64-.21-6.74,5.07-5.11,1.3.4,3-.46,4.5-.66,1.32-.17,3.06,0,2.84-2s-2-1.49-3.27-1.53c-2.12-.07-4.25,0-6.38-.07-1.53,0-2.65-.57-2.6-2.35s1.26-2.19,2.75-2.21c2.51,0,5,0,7.54-.1,1,0,2-.5,2-1.64s-.87-1.66-1.92-1.7c-1.93-.08-3.87,0-5.8-.1s-4.58.68-4.67-2.7c-.1-3.79,2.76-2.92,4.93-3,1.73-.09,3.48,0,5.21-.08,1,0,2-.22,2.19-1.42.2-1.58-1-1.92-2.19-2-1.93-.07-3.87,0-5.79-.07s-4.31.6-4.2-2.47c.09-2.61,2.31-2.07,3.95-2.13,1.93-.08,3.87,0,5.8-.06,1.2,0,2.51-.24,2.46-1.75s-1.37-1.66-2.56-1.68q-3.48-.06-7-.06c-1.9,0-2.85-.86-2.86-2.79s.76-2.91,2.72-2.92c2.32,0,4.64,0,7-.07,1.15,0,2.56,0,2.67-1.53.14-2-1.57-1.86-2.87-1.9-2.32-.08-4.64,0-7-.09-1.61,0-2.53-.83-2.39-2.53.11-1.44,1.09-2,2.36-2,1.94-.06,3.88.07,5.8-.1,1.53-.13,4.06.83,4-1.86-.06-2.14-2.32-1.48-3.75-1.56-1.92-.12-3.86-.07-5.79-.07s-2.76-1-2.75-2.89.91-2.83,2.82-2.83q3.48,0,7,0c1.18,0,2.52-.13,2.6-1.64s-1.23-1.75-2.43-1.78c-2.32,0-4.64,0-7-.07-1.44,0-2.76-.28-2.86-2.09-.13-2.18,1.37-2.49,3-2.51,2.32,0,4.64,0,7-.07,1.6,0,2.56-.8,2.42-2.52-.11-1.44-1.1-1.93-2.38-2a25.81,25.81,0,0,1-4-.11c-2.13-.44-5.92,1.66-5.85-2.44.06-3.53,3.56-1.78,5.58-2.12a44.52,44.52,0,0,1,4.63-.12c1.05-.05,1.94-.56,1.91-1.71s-1-1.61-2-1.64c-2.51-.07-5-.06-7.54-.1-1.49,0-2.7-.41-2.75-2.21s1-2.3,2.59-2.37a25.89,25.89,0,0,0,5.74-.44c1.47-.41,4.14-.24,3.89-2.58s-2.77-1.23-4.29-1.67c-2.64-.78-7.56,2.18-7.59-2.26s4.92-1.51,7.53-2.32c1.51-.46,4.12.79,4.28-1.64.16-2.64-2.5-1.48-4-1.9-2.78-.78-7.8,2.21-8-2.61-.23-5.87,5.27-2.07,8-3.11,1.43-.53,4.05.77,4-2-.09-2.13-2.35-1.39-3.77-1.55-3.48-.41-7.79,1.65-9.45-3.87-.38-1.27-3.11-1.12-3.49.88-.73,3.79-3.51,2.69-5.84,3s-6.49-1.3-6.49,1.45c0,3.58,4.2,1.45,6.53,2s5.57-1.14,5.43,3.11c-.12,3.79-3.23,2.23-5.24,2.72-2.38.59-6.8-1.65-6.75,1.79,0,3.25,4.49,1.05,6.9,1.66,1.83.46,4.89-1.06,4.92,2.3s-3,1.85-4.85,2.38c-2.46.72-7.16-1.9-7,2.11s4.94,1.93,7.71,2.42a2.39,2.39,0,0,0,1.14-.17c1.6-.53,3.1-.92,3.25,1.57.13,2.09-.61,3.33-2.91,3.3q-3.78,0-7.54.09c-1,0-2,.54-1.95,1.68s.92,1.64,2,1.67c2.32.07,4.64,0,7,.08,1.56,0,3.26,0,3.35,2.2s-1.49,2.39-3.13,2.42c-1.93,0-3.87,0-5.8.06-1.65.06-3.23.55-3.35,2.46-.13,2.37,1.83,2,3.3,2.09,2.13.08,4.26,0,6.38.07,1.53,0,2.65.57,2.61,2.34s-1.24,2.21-2.74,2.23c-2.32,0-4.64,0-7,.06-1.19,0-2.52.2-2.56,1.68s1.28,1.72,2.48,1.74c1.93,0,3.86,0,5.8,0s4-.2,4.1,2.72c.1,3.3-2.21,3-4.36,3.06-1.93,0-3.86,0-5.8,0-1,0-2,.22-2.18,1.42-.19,1.58,1,1.92,2.2,2,2.32.07,4.64.05,7,.08,1.67,0,3.17.31,3,2.5-.1,1.81-1.42,2.07-2.86,2.09-2.13,0-4.25,0-6.38,0-1.32,0-3.07-.1-3,1.81s1.85,1.61,3.15,1.64c2.13.06,4.26.06,6.38,0,1.92,0,2.82.93,2.83,2.83s-.82,2.89-2.77,2.89a19.11,19.11,0,0,0-3.47.06c-2.09.38-5.91-1.19-5.87,1.57,0,3.55,4,1.34,6.15,1.86a20,20,0,0,0,3.47.1c1.28.06,2.25.56,2.36,2,.13,1.72-.8,2.49-2.41,2.53-2.32.06-4.64,0-7,.09-1.3,0-3-.12-2.85,1.9.11,1.51,1.51,1.52,2.67,1.54,2.32.05,4.64.05,7,.06,2,0,2.73,1.07,2.71,2.93s-1,2.79-2.86,2.79c-2.51,0-5,0-7.54.08-1,0-2,.49-2,1.64s.88,1.63,1.93,1.71a16.11,16.11,0,0,1,2.88.11c2.51.66,7-1.85,7.18,2.16.16,4.43-4.49,1.63-6.89,2.41a9.31,9.31,0,0,1-2.31.06c-1.14.07-2.56,0-2.72,1.49-.2,2,1.48,1.88,2.79,2a16.19,16.19,0,0,0,3.48,0c4.77-.73,6.87,1.18,6.18,6-10.54,1.7-18.88,7.06-25.49,15.3q-.06-24.29-.1-48.57c0-23.81-.12-47.61.1-71.42,0-4.63-1.37-6.13-5.92-5.8-5,.36-10,.1-15,.11.63-2.59-2.28-6.93,3.46-7,4.82,0,9.66-.21,14.47.08,4,.24,5.31-1.19,5.29-5.24-.14-33-.08-65.94-.08-98.91,0-2.31,0-4.38-2.09-6.25-2.3-2.11-1.94-4.38,1.66-4.47,8.81-.2,40.88.08,49.68-.18m-8.24,72.18c-3.53-1.23-5.65-2.33-8-2-1.88.31-3.9,1.66-4.26-1.63-.34-3.11,1.71-3.14,4-3.43s6.86,1.69,6.86-1.66-4.43-1.24-6.86-1.68c-1.92-.34-4,.07-4.05-2.84s1.79-2.77,3.84-3.06c2.48-.34,7,1.51,7-1.47-.05-3.76-4.62-1.33-7.14-1.9-1.7-.39-3.73,0-3.54-2.64.17-2.21,2-1.75,3.49-2.1,2.53-.61,7.12,1.8,7.21-1.87.06-3.07-4.49-1.16-6.95-1.52-2-.3-3.93-.19-3.9-3s2-2.58,4-2.9c2.44-.4,6.86,1.65,6.9-1.63s-4.4-1.2-6.79-1.76c-1.59-.37-3.8.41-4-2.21s2-2.2,3.64-2.51c2.47-.47,7,1.46,7-1.46,0-3.81-4.6-1.32-7.1-1.95-1.45-.36-3.28.11-3.61-2-.22-1.32-.41-2.94,1.21-3.48,1.24-.41,2.7-.09,4-.38,2-.44,5.75,1.38,5.66-1.8-.09-3-3.82-1.11-5.87-1.64a3.7,3.7,0,0,0-.58,0c-1.75-.23-4.35.7-4.34-2.33s2.61-2.11,4.37-2.3c.77-.08,1.57.1,2.32,0,1.67-.29,4.49,1,4.32-2.17-.15-2.55-2.61-2.63-4.52-2.37-3.3.43-6.85,1.95-7.52-3.42-.09-.75-1.68-1.13-1.87-.67-2.12,5.28-7,3.49-10.85,4.5-1,.28-2.43.79-2.15,2.28.24,1.28,1.42,1.74,2.65,1.8,1.93.08,3.86.06,5.8.12,1.6,0,2.55.8,2.42,2.52-.11,1.44-1.07,2-2.35,2-1.55.06-3.11-.07-4.64.09s-4.07-.82-4,1.86c0,2.13,2.32,1.48,3.75,1.57s3.09,0,4.64,0c1.72,0,3.74-.22,3.76,2.39s-1.59,3.32-3.8,3.35c-1.74,0-3.49,0-5.22.05-1.3,0-3.07-.26-3.18,1.62s1.63,1.77,2.94,1.82c1.74.07,3.49,0,5.23.05,1.43,0,2.77.28,2.88,2.09.13,2.19-1.38,2.48-3,2.52-2.12,0-4.25,0-6.37.14a1.56,1.56,0,0,0-1.65,1.88,1.53,1.53,0,0,0,1.61,1.35c2.32.1,4.64.13,7,.16a3.14,3.14,0,0,1,3.35,3.24c.09,2-1.6,2.42-3.23,2.47-2.13.08-4.26,0-6.39.09-1.2,0-2.42.3-2.29,1.89.09,1.18,1.1,1.48,2.11,1.51,1.93.05,3.87,0,5.8.06,1.63,0,3.24.2,3.16,2.41s-1.78,2.18-3.35,2.21c-1.93,0-3.87,0-5.8.08-1,0-2,.54-2,1.68s.92,1.64,2,1.68c2.32.07,4.64.05,7,.08,1.59,0,3.24,0,3.34,2.23a3,3,0,0,1-3.07,3.44c-2.31.14-4.64.07-7,.14-1,0-2,.21-2.17,1.43-.19,1.58,1,1.92,2.2,1.95,2.51.08,5,.05,7.54.11,1.6,0,2.55.8,2.43,2.52-.1,1.43-1.06,2-2.34,2-2.12.07-4.25,0-6.38.09-1.42,0-3.1.31-3.2,1.84-.13,2,1.8,1.53,3,1.59,1.93.1,3.87,0,5.8.1,1.75.09,3.05,1,3,2.82s-1.31,2.74-3.06,2.81c-2.31.1-4.64.06-7,.13-1,0-2,.29-2.13,1.48-.15,1.6,1.08,1.87,2.28,1.9,2.32.07,4.64,0,7,.08,1.37,0,2.9,0,2.83,2a2.56,2.56,0,0,1-2.68,2.51c-2.31.16-4.64.08-6.95.25a2.22,2.22,0,0,0-2.31,2.13,2.17,2.17,0,0,0,2.24,2.2c2.11.18,4.25.07,6.37.17,1.26.06,3.12-.39,3.09,1.59a2.87,2.87,0,0,1-2.94,3c-2.32.07-4.64,0-7,.12-1,0-2,.52-2,1.66s.9,1.65,1.94,1.69c2.13.08,4.26.06,6.39.09,1.87,0,3.69.41,3.82,2.62.16,2.62-1.81,2.94-3.9,3.15-2.62.27-5.53-.87-8.65,1.46,3.76,1.42,6.84.67,9.83.89,2,.14,3.81.55,2.2,3-.95,1.46-.52,2.1.81,2.5,1.13.34,2.94.34,3-.84.29-6.31,4.89-4.4,8.39-4.74,1.15-.11,2.91.63,2.93-1.71-2.58-1.2-5.33-.43-8-.62-1.92-.13-2.8-1-2.8-2.88s.85-2.87,2.79-2.86a34.32,34.32,0,0,0,4.06-.06c1.58-.16,4.15.83,4.27-1.61.13-2.6-2.52-1.49-4-1.87-2.35-.59-6.61,1.66-6.7-2.09-.1-4.58,4.46-1.75,6.85-2.5,1.49-.47,3.94.69,4-2,0-2.24-1.92-2.58-3.76-2.63-1,0-1.95.06-2.9,0-1.76-.18-4.36.75-4.39-2.28s2.57-2.14,4.34-2.33c.76-.08,1.56.08,2.31,0,1.58-.23,4.14.82,4.29-1.61.15-2.63-2.47-1.67-4-1.84a34.33,34.33,0,0,0-4.06-.05c-1.77,0-2.95-.58-3-2.63-.09-2.25,1-3,3.13-3.14C133.12,419.69,135.82,420.4,139.66,418.63Z"/><path class="cls-2" d="M1625.9,399.45c.4,1.28,0,1.8,1,2,1.95,1.94,3.87.74,6.08.75,25.15.07,50.3,0,75.45,0,1.36,0,2.72-.05,4.07,0,1.86.09,4.8-.42,4.79,1.92,0,2.78-3,1.54-4.7,1.54-25.92.09-51.84.06-77.77.06-1.55,0-3.1-.08-4.64,0s-3.54-.54-3.46,1.85c.06,1.87,1.9,1.53,3.19,1.59,1.54.07,3.09,0,4.64,0h78.94c1.54,0,3.09,0,4.64.08a2.77,2.77,0,0,1,2.79,3.06c-.24,2.11-2,.89-3.18.86-7.91-.21-15.83-.55-23.74-.43-21.06.33-42.13-.91-63.18.61-1.94.14-4.36-.85-4.13,2.09s3,1.71,4.72,1.71c28,.08,56.1,0,84.16.14,2.6,0,7.24-1.59,7.33,2,.07,2.94-4.52,1.37-6.93,1.38-27.67.14-55.33.09-83,.1-1.55,0-3.1,0-4.64.12a1.57,1.57,0,0,0-1.65,1.87,1.54,1.54,0,0,0,1.58,1.38c1.74.09,3.48.14,5.22.14h85.32c1.54,0,3.09,0,4.64,0a2.88,2.88,0,0,1,3.22,2.67c.22,2.61-2,1.81-3.32,1.82-12,.07-24,0-36,0h-52.82c-1.35,0-2.72-.07-4.06,0s-3.6-.6-3.75,1.58c-.16,2.33,2.06,1.72,3.47,1.84s2.7,0,4.06,0h85.32a28.85,28.85,0,0,1,3.48,0c2.12.25,5.7-1,5.7,2,0,2.62-3.47,1.38-5.34,1.39-30.18.09-60.36,0-90.55.12-2.08,0-5.91-1.21-5.91,1.47,0,3.66,4,1.87,6.08,1.88,30,.14,60,.1,90,.1,1.35,0,2.71.06,4.06,0,2.17-.11,4.26.46,4.22,2.83,0,2.65-2.57,1.66-4,1.67-19.74.06-39.47,0-59.21,0-12.18,0-24.37,0-36.56.06-1.71,0-4.7-1-4.69,1.73s3,1.7,4.7,1.71c31.73.06,63.46,0,95.19.12,2,0,5.77-1.39,5.84,1.62.08,3.18-3.65,1.75-5.65,1.76-31,.1-61.91.07-92.87.08l-4.64,0c-1.45,0-2.76.28-2.85,2.1s1.09,2.3,2.6,2.34,3.1,0,4.64,0h93.45c1.55,0,3.1,0,4.64.07,1,0,2,.33,2.12,1.51.14,1.6-1.07,1.86-2.27,1.91-1.55.06-3.1,0-4.65,0h-93.44c-1.36,0-2.71,0-4.06,0s-3-.1-2.83,1.93c.12,1.53,1.53,1.48,2.68,1.51,1.35.05,2.71,0,4.06,0h93.45a12.11,12.11,0,0,1,2.89,0c2.16.56,6.1-1.68,6.14,1.89,0,2.76-3.8,1.53-5.86,1.54-32.31.09-64.62,0-96.93.16-2.16,0-6.19-1.72-6.2,1.72,0,2.92,4.14,2.67,6.71,2.68,32.5.06,65,0,97.51.11,2.09,0,5.91-1.2,5.92,1.5,0,3.69-3.94,1.87-6,1.87-32.5.13-65,.09-97.51.09-1.35,0-2.71,0-4.06,0-1.13,0-2.56-.07-2.74,1.45-.24,2,1.42,1.93,2.75,2s2.7,0,4.06,0h95.77a39.05,39.05,0,0,1,4,0c1.55.17,4.17-.77,4,1.85-.13,2.42-2.69,1.62-4.27,1.62-33.08.05-66.16,0-99.25.13-2.45,0-7.06-1.95-7,2.17s4.63,2.13,7.08,2.14c32.5.16,65,.11,97.51.11,1.55,0,3.09,0,4.64,0,1.19,0,2.51.17,2.57,1.67s-1.25,1.74-2.44,1.78c-1.55.05-3.1,0-4.65,0h-98.08c-1.55,0-3.1,0-4.65.06-1,0-2,.3-2.11,1.5-.15,1.58,1,1.87,2.25,1.93,1.55.07,3.1.05,4.64.05h99.25c1.36,0,2.71,0,4.07,0s3-.05,2.79,2c-.15,1.53-1.59,1.43-2.72,1.46-1.74.06-3.48.05-5.22.05h-98.67c-1.35,0-2.71,0-4.06,0-1.56.05-2.62.68-2.51,2.45.09,1.44,1,2,2.33,2s2.71.06,4.06.06h99.25c1,0,1.95-.08,2.91,0,2,.17,5.34-.72,5.34,1.87,0,2.92-3.37,1.57-5.18,1.57q-50.78.15-101.57.07c-1.35,0-2.71,0-4.06,0s-3-.13-2.88,1.89c.09,1.54,1.52,1.5,2.66,1.52,2.52.05,5,.06,7.55.06h96.34c1.55,0,3.1,0,4.64.08,1,.05,1.95.55,1.93,1.7s-.93,1.61-2,1.66c-1.54.07-3.09.08-4.64.08h-96.35c-1.93,0-3.87,0-5.8,0s-4.42-.1-4.38,2.54c0,3.06,2.85,1.94,4.5,1.94q51.08.11,102.15,0c1.55,0,3.1,0,4.65,0,1.3.06,3-.09,2.86,1.92-.1,1.53-1.52,1.48-2.67,1.52-1.55,0-3.1,0-4.64,0h-98.67c-1.74,0-3.49,0-5.23,0-1.31,0-3-.18-3,1.77s1.17,2.37,3.09,2.35c5.18,0,10.36.38,15.54.39,25.35,0,50.69-.09,76,.15,3.56,0,7.15-2.34,10.69,0a26.24,26.24,0,0,1-8.35,4.36c-1.25-1.31-2.88-.9-4.38-.91q-43.8,0-87.61,0c-1.71,0-4.8-1-4.77,1.6,0,3.14,3.31,1.77,5.12,1.78,21.08.1,42.16,0,63.24.09,7.33,0,14.68-.61,22,.46a7.14,7.14,0,0,1-3.8,4.19c-1.34-1.57-3.19-1.11-4.87-1.11q-38.54-.06-77.08,0c-1,0-1.93,0-2.89.07s-1.93.54-1.89,1.71,1,1.57,2,1.63,2.32.07,3.48.07l78.82,0-4.33,4.82c-1.71-1.84-4-1.19-6-1.2q-34.18-.06-68.38,0c-.77,0-1.55,0-2.32,0-1.54.06-3.28-.08-3.38,2.15s1.53,2.35,3.14,2.38,3.48,0,5.22,0l68.34.4c-.1,1.2-.16,2.41-1.4,3.1q-35.4,0-70.79.07c-1.57,0-4.15-.83-4.27,1.6-.14,2.6,2.5,1.8,4,1.8q34.82,0,69.64-.08-1,2.36-2.09,4.71l-66,0c-1.35,0-2.7,0-4.05.13a1.57,1.57,0,0,0-1.64,1.87,1.51,1.51,0,0,0,1.59,1.36c1.53.08,3.08.13,4.62.13l64.22,0c0,1.27.16,2.6-1.07,3.49l-63.09,0c-1.54,0-3.09,0-4.62.13a1.84,1.84,0,0,0-1.84,1.85,2,2,0,0,0,1.84,2.42,33.44,33.44,0,0,0,3.47.13l57.88,0c2.13,0,4.26.1,6.15-1.12l-.53,4.88q-32.46-.1-64.93-.21c-1.43,0-3.69-.5-3.65,1.66,0,2.6,2.55,1.77,4.09,1.78,16.62.06,33.25,0,49.87.07,2,0,4.31-.78,6,1.2l-5.38,2.35-35.08,0c-1.6-2-3.84-1.26-5.85-1.29-7.41-.13-14.82-.16-22.23-.22q0-86.8.06-173.61c0-1.68.48-3.52-1.1-4.87h0c.94-6.26,2.37-12.54-1.15-18.52v0c3.57-.75,2.2-3.66,2.21-5.66.1-20.5,0-41,.07-61.48,0-6.8.66-7.18,6.89-4.27,2.61,1.23,5.27,2.35,7.89,3.58.25.11.31.63.47,1-1.89,2-6.84-.95-6.5,2.37.35,3.5,4.78,1.48,7.38,1.75,4.43.47,9.25-.92,13.49,3.56-6.07,0-11.43-.06-16.78,0-1.74,0-4.37-.86-4.49,2.14s2.53,2.33,4.28,2.35c7.54.08,15.09,0,22.63.06,1.82,0,4.65-.41,4.54,2.16-.1,2.26-2.82,1.24-4.35,1.27-7.35.12-14.71,0-22.05.11-1.72,0-4.69-1.08-4.79,1.59-.12,2.87,2.9,1.77,4.57,1.79,9.48.12,19,.05,28.43.06a34.29,34.29,0,0,1,4.06.12c1.86.23,3.74,1.28,3.56,3.12-.2,2.08-2.49,1.27-3.88,1.28-10.44.07-20.89,0-31.33.1-1.89,0-5.34-1.19-5.34,1.57,0,3.38,3.64,1.81,5.59,1.83,12,.16,24,.07,36,.07,1.36,0,2.71,0,4.06,0s3.06.45,3.06,2c0,2-1.93,1.44-3.14,1.44-13.35.05-26.7,0-40,0-1.36,0-2.71,0-4.06.11-1.08.09-1.81.67-1.67,1.86a1.53,1.53,0,0,0,1.57,1.39c1.34.09,2.7.13,4,.13l42.94,0c1.36,0,2.71,0,4.06,0,2.14,0,4.36,1,4.34,3,0,2.6-2.69,1.47-4.15,1.48-15.48.1-31,.06-46.43.06-1.35,0-2.71,0-4.06,0s-2.43.3-2.31,1.88c.08,1.19,1.09,1.48,2.1,1.52,1.35.05,2.7.05,4.06.05h48.74c1.55,0,3.1,0,4.65,0s3.51.19,3.23,2.3c-.25,1.83-2.2,1.13-3.41,1.13-17.6.06-35.2,0-52.8.05-1.55,0-3.1,0-4.64.07-1,.05-2,.53-2,1.67s.88,1.66,1.93,1.71c1.54.08,3.09.08,4.64.08h55.13c1,0,1.94,0,2.9,0,1.73,0,4-.13,4.12,2.11.07,2.78-2.52,2.36-4.35,2.36-14.9,0-29.79,0-44.69,0-5.22,0-10.45-.07-15.67,0-1.51,0-4.07-.79-3.87,2,.16,2.12,2.41,1.46,3.82,1.47,13.54.06,27.08,0,40.62.05q12.77,0,25.53,0c1.74,0,4.24-.13,4.27,1.91,0,2.6-2.65,1.54-4.13,1.54-21.86.07-43.72,0-65.58.05-2.94,0-6.68-.53-3.76,4.47,0,.49,74.36-1.12,74.35-.62,3,3,12,15.82,13,19,.8,2.58-83.33.1-79-1,0,.43-5-.43-5,0-3,0-1.29-1.4-4,1"/><path class="cls-2" d="M382,205c-5.32-15-24.43-22.5-39-11.73a9.94,9.94,0,0,1-2.71.91c-.08-20.1-.09-40.21-.31-60.31,0-4.33,2.32-5.29,5.81-5.31,7.93,0,15.86.14,23.79-.06,4.12-.1,5.38,1.64,5.32,5.55-.16,11.41.12,22.82-.16,34.22-.11,4.43,1.42,5.69,5.68,5.52,7.53-.3,15.1-.42,22.62,0,5.09.3,5.56-2.05,5.55-6.16-.12-35.77,0-71.54-.16-107.31,0-4.73,1.21-6.29,6.12-6.31s5.7,1.84,5.68,6.14c-.14,35.19-.08,70.38-.08,105.57,0,8,0,8,8.24,8,6.58,0,13.17-.29,19.73.11,4.76.3,5.81-1.5,5.79-5.94-.16-35.57-.09-71.15-.08-106.73,0-6.71,2.65-8.58,9.28-6.87,3.51.91,2.31,3.65,2.31,5.67.1,25.14.07,50.27.08,75.41,0,11.21.1,22.43-.06,33.64-.05,3.41.9,4.87,4.56,4.77,8.12-.21,16.26-.24,24.37,0,3.95.12,4.92-1.44,4.86-5.11-.19-11.4.1-22.81-.16-34.21-.1-4.65,1.67-6.5,6.12-5.88,7.87,1.11,15.72-.23,23.58-.13,4,.06,5.32,1.25,5.29,5.31-.19,24.94-.14,49.88-.17,74.82l-34.55,0c0-2.64-1.32-3.64-4-3.6q-13,.17-26,0c-2.57,0-4.1.72-4,3.52l-11.41.18c.06-2.65-1.13-3.74-3.87-3.7q-13,.17-26.09,0c-2.65,0-4,.87-4,3.59l-11.4,0c.2-3.26-1.82-3.58-4.41-3.55C396.85,205.06,389.44,205,382,205Z"/><path class="cls-6" d="M1347.65,62.92c-.45,15.65-6.92,31.26-15,46.37-11.46,21.56-25.92,41.06-41.59,59.69-4.84,5.75-4.92,5.55-9.68-.12-17.82-21.18-34.13-43.38-45.91-68.57-7-15-12-30.31-9.9-47.43,3.13-25,23.71-47.35,48.69-51.8,32.64-5.83,62.56,12.87,71.28,44.61A60.51,60.51,0,0,1,1347.65,62.92Zm-24.23-1.39A36.9,36.9,0,0,0,1286.73,24c-20.61-.2-37.56,16.29-37.65,36.63-.1,21.2,16.07,37.69,37,37.77A36.77,36.77,0,0,0,1323.42,61.53Z"/><path class="cls-2" d="M79,461.42c-5.74.07-2.83,4.41-3.46,7q-.06,67.24-.1,134.48c-3.67-.64-2.34-3.62-2.22-5.55.27-4.59-1.57-6.28-6.08-6-4.22.26-8.48-.07-12.72.09-3.1.12-4.41-.85-4.58-4.21-.56-10.71-1-21.48-2.45-32.09-1-7.1-.21-14.23-1.37-21.24-1.88-11.37-1.73-22.89-2.87-34.31,7.54,0,15.08.11,22.62,0,1.76,0,4.36.89,4.78-1.84.36-2.32,1.5-5.48-1-6.95-2.76-1.61-2.2-3.8-2.21-6,0-16.23-.08-32.47,0-48.7,0-3.14-.39-5.36-4.32-5-1.48.15-3.36.27-3.68-1.84s-.57-4.33,1.59-5.77c1-.65,2.07-1.06,3-1.69,4.53-3,7.18-6.36,7-12.56-.47-23.38-.18-46.76-.19-70.14,0-3,.62-6.12-2.71-8.28-1.49-1-.78-3.26-.78-5,0-15.65-.06-31.3,0-47,0-3.82-.08-7.17-5.31-6.73a2.29,2.29,0,0,1-2.78-2.22c-.32-2.44.77-4.06,2.65-5.38,6.46-4.54,12.73-9.38,19.41-13.56,5-3.15,7.72-6.7,7.11-13-.63-6.51.27-13.16-.26-19.69-.48-5.89,1.45-10.07,6.28-13.18,2-1.25,3.91-2.49,5.72-3.92,3.4-2.68,4.45-1.78,4.4,2.33-.13,12.18.11,24.35-.13,36.52-.09,4.19,1.34,6.9,4.83,9,7.72,4.71,14.43,10.92,22.4,15.29a5.14,5.14,0,0,1,2.93,5.76c-.52,2.92-2.91,2.07-4.64,2.06-4.11,0-3.36,2.89-3.36,5.28-.06,15.27-.06,30.53-.08,45.8-10.29,0-20.59-.13-30.87,0-9.12.16-10.79,2-10.83,10.93,0,2.12,0,4.23-.07,6.35-2.08,0-3.21.9-4.61,2.63-3.39,4.16-1.19,8.27-1.17,12.53C79.11,391.08,79,426.25,79,461.42Z"/><path class="cls-7" d="M1583.68,593.71c-5.5-8.7-12-16.85-20.92-21.85-14.42-8.1-29.47-14.34-47-11.13-6.32,1.16-12.92,1.33-19.27,2.85l-.3-9.26v-10.6q0-5.7,0-11.4.06-5.27.11-10.53l5.62-.31,7.37-.05c9.19-.12,18.44,1.29,27.57-.86,10.86,2.25,21.81.93,32.74.87,8.5.07,17,.21,25.51.16,3.13,0,4,.62,3.92,4.29-.51,19.09-.69,38.19,0,57.3.26,7.19,1.48,14.56-.34,21.79l-.27.31c-2.24-3.14-3.09-6.88-4.49-10.39-1-2.4-1.15-5.26-4.62-5.82C1585.53,588.46,1585.35,591.92,1583.68,593.71Z"/><path class="cls-8" d="M1364.07,670.76c.06,6.37,0,12.74.24,19.1.16,3.95-1.58,5.08-5.19,4.87-3.46-.2-6.95-.11-10.43,0-14.25.31-28.5.69-42.76,1-2,0-4.3.67-6-1.22-.42-2.5,1.61-3.24,3.13-4.29a61.2,61.2,0,0,0,20.22-23.85c7.74-1.22,15.52-.38,23.28-.55a2.42,2.42,0,0,0,2.43-1c2.58-1.6,2.3-4.26,2.34-6.7.09-5.38-.15-10.76.07-16.12.16-3.93-.94-6.74-4.89-8,0-2.87,0-5.74-.12-8.61-.36-8.57.82-17.18-.77-25.71,5-6.58,4.6-12.11-1.21-17.23,1.19-2.74,0-5.37-.71-7.87-6.76-23.09-26.18-38.85-50.29-41A18.12,18.12,0,0,1,1278,523.17c8.37-2.62,17-2.67,25.64-2.55,11.65,2.18,22.61,6.1,32.46,12.82,15.77,12,25.34,27.74,28.07,47.48Q1364.11,625.85,1364.07,670.76Z"/><path class="cls-9" d="M96.46,594.1c-3.56,6.5-6.49,13.18-6,20.85,6,1.9,6.35,6.49,5.93,11.77-.35,4.4-.06,8.85-.06,13.28l-7.56,1.29a8.41,8.41,0,0,1-.12-2.81c1.64-5.07,0-7-5.38-6.66-7.65.43-15.34.24-23,.32-4.23-5.66-6.77-12.14-9.1-18.73,4.57,0,9.14.09,13.7,0,11.87-.23,10.52,2.15,10.51-10.51q0-67.23.1-134.48c5,0,10,.25,15-.11,4.55-.33,6,1.17,5.92,5.8-.22,23.81-.11,47.61-.1,71.42Q96.38,569.82,96.46,594.1Z"/><path class="cls-4" d="M88.81,641.29,96.37,640c7.33.88,14.52-1.34,21.84-.93.62,2.67,3.13,2.6,5,3.08a82.63,82.63,0,0,0,8.93,1.43c.94,2.14,3.1,3,4.87,3.91a59.52,59.52,0,0,1,20.63,17.17c6,7.58,6.32,7.33,15.58,1.93a74.25,74.25,0,0,0,17.21,17.54c-5.39,3.09-9.33,7.14-9.25,13.88-2.28,1.45-6.8,2-2.32,6.09-10.9,1.33-21.81.95-32.73.21,1.1-2.41-2-7.59,3.09-7.09,7.88.78,7.89-3.5,7.52-9-.21-3.08.07-6.19-.11-9.27-.27-4.6-2.74-7.86-7.29-8.43s-7.35,2.28-8.45,6.38c-.62,2.33-1.44,3.37-3.87,4.11-3.13,1-4,13.71-1.3,15.49a3.33,3.33,0,0,0,2.24.37c6.4-1.2,6.28,3,6.13,7.27-9.75,1-19.51.72-29.27.2.31-8.61.31-8.61,8.77-8.65a14.42,14.42,0,0,1,1.74,0c3.39.38,5.11-.81,4.7-4.51-.7-6.29-.93-12.64-2-18.87a112.69,112.69,0,0,0-3.79-14.46c-.82-2.7-2.51-4.89-5.67-5s-4.17,2.26-5.39,4.51c-2.42,4.46-3.08,9.47-4.59,14.46-4.48-3-6.68-.94-7.91,3.4a64.58,64.58,0,0,0-2.21,15.35c-.14,4.2,1.4,5.25,5.34,5.2,8.72-.09,8.73.1,8.91,8.39-3.78,1.11-7.64.33-11.46.53a3,3,0,0,1-3-1.34c-3.54-6.3-8.79-11.72-10-19.23Z"/><path class="cls-7" d="M75.41,602.9c0,12.66,1.36,10.28-10.51,10.51-4.56.09-9.13,0-13.7,0-8.05-16-14.17-32.74-20.31-49.5A568.76,568.76,0,0,1,10,493.22,20.83,20.83,0,0,1,9.42,487l2.28-.11c3.05-.32,3.13,2,3.74,4a1.68,1.68,0,0,0,2.15,1.36c.95-.29.88-1.19.87-1.9-.05-3.44.23-6.86-.65-10.3-.93-3.64.21-6.27,4.5-7.1a73.23,73.23,0,0,0,12.75-3.47c5.31-2.08,6.36.7,6.62,4.91.5,8.41,1,16.83,1.44,25.24,1.14,11.42,1,22.94,2.87,34.31,1.16,7,.38,14.14,1.37,21.24,1.49,10.61,1.89,21.38,2.45,32.09.17,3.36,1.48,4.33,4.58,4.21,4.24-.16,8.5.17,12.72-.09,4.51-.29,6.35,1.4,6.08,6C73.07,599.28,71.74,602.26,75.41,602.9Z"/><path class="cls-7" d="M1670.9,596.45c.06.44-9.58,9.74-9.52,10.18-3.29,9.3-2.73,10.09,6.83,10.11,8.1,0,16.19.11,24.29.17l0,16.2c-.3,2.39-2.08,2.24-3.81,2.25-3.19,0-6.38.07-9.58.11-12.51-12.91-27.64-13.16-38.9-6.48-3,1.81-5,4.7-8,6.47l-36.37,0c-1.38-1.43-1-3.25-.89-4.9.67-11.56-3.8-21.86-7.9-32.24-.16-.4-.93-.57-1.41-.86,0-.47-2.76-4.52-2.75-5,1.66-1,1.48-6.29,4-6,2.24.26,5.34-4.71,6-3,1.11,2.85,4.81,8.19,6,11,.87,2-1.81,14.65-.45,10.84l.27-.31,3.21.1c2.48,2.27,12.16,3.71,14.33,1.87,4.38-3.72-9.22,10.8-6.36,6.5,1.1-1.66,3.12-17.42,1-18-1.63-.46.66-6.83-.89-7.57,0-.38.06-.75.06-1.13.06-8,.06-8,8-8.36,7.41.06,14.82.09,22.23.22,2,0,4.25-.68,5.85,1.29,0,1.09,31.73,1.46,31.7,2.55"/><path class="cls-9" d="M79,461.42c0-35.17.14-70.34,0-105.52,0-4.26-2.22-8.37,1.17-12.53,1.4-1.73,2.53-2.67,4.61-2.63l58.23-.07c3.3-.13,4,2.78,5,5.78-7,0-16,0-23.26-.05-8.8.26-17.61,0-26.42.23-3.6.09-4,2.36-1.66,4.47,2.06,1.87,2.09,3.94,2.09,6.25,0,33-.06,65.94.08,98.91,0,4.05-1.26,5.48-5.29,5.24C88.63,461.21,83.79,461.43,79,461.42Z"/><path class="cls-10" d="M1671.55,587.92l2.47-3.06,7.26-5,5.38-2.35,9.13-2.4c5,.08,10.12-.2,14.85,1.52,3.22,1.17,4.29.09,5.6-2.57a62.9,62.9,0,0,1,22.65-25.59c-1.61,23.18-7,45.58-14.15,67.6-.66,2-1.49,2.92-3.19.85-.08-.1-.37,0-.56,0-8-1.34-9-.22-7.37,7.52a27.52,27.52,0,0,0,2.92,7.49c1.22,2.26,1.51,4.31-.86,6a36.39,36.39,0,0,1-6.81-18.07c-.13-1.23.19-3-1.83-3-2.86,0-5.91-.43-8.5.45-1.58.53-.32,3.1.25,4.63,3,8.2,9,13.6,16.77,17.29-.28,1.45-.69,2.81-2.13,3.57a80.1,80.1,0,0,1-12.81-9.71c-1.75-3.13-3.51-6.25-5.25-9.38-1.21-2.16.24-5.44-2.87-6.8-8.1-.06-16.19-.16-24.29-.17-9.56,0-10.12-.81-6.83-10.11"/><path class="cls-4" d="M1632.22,635.46c3-1.77,5-4.66,8-6.47,11.26-6.68,26.39-6.43,38.91,6.48.26,2.82,1.86,6.2,3.71,6.73,6.56,1.88,4.85,6.38,4.42,10.69-2.4.75-4.8.26-7.2,0l-2.33.08c-5.23.9-10.73.58-15.52,3.45a1.85,1.85,0,0,0-2.3,1c-5.29,1.26-10.2,3.13-13.09,8.22-.95-.08-1.8,0-2.13,1.14-4.45,1.42-5.19,7.5-10.25,8.16-2.62-4.82-3-11-8.39-14.16-.34-.74-.68-1.48-1-2.22a41.3,41.3,0,0,1,3.39-15.13c.1-.73.19-1.45.27-2.18Z"/><path class="cls-8" d="M1626.06,660.86c5.37,3.2,5.77,9.34,8.39,14.16-.16,3.05-1,6.5,4.42,4.62,1.08-.37,4.34-.14,4.49,3,.3,6.44,3.75,12.42,2.78,19.05l0,2.9,0-.13-2.42.33a125.94,125.94,0,0,0-28,.05h-1.94a4.22,4.22,0,0,0-5.09-.05l-2,.05c-6.19-1.46-12.48-.22-18.71-.67,0-5.91,0-11.83-.13-17.75-.13-5.08,2-8,7.24-8.31l5.77.4c2,3.87,3.58,7.82,7.24,10.78a8.47,8.47,0,0,1,2.56,8.27c-.25,1.08-2.46,2.16.35,2.64,1.5.26,3.25.34,3.44-1.9a21.82,21.82,0,0,0-.77-8.5c1.42-.85,1.1-2.34,1.32-3.63q1-6.85,2-13.69a3.79,3.79,0,0,0,1.4-3.23c1.64-2.87,3-6,5.71-8Z"/><path class="cls-4" d="M1738.89,548.48a62.9,62.9,0,0,0-22.65,25.59c-1.31,2.66-2.38,3.74-5.6,2.57-4.73-1.72-9.85-1.44-14.85-1.52l-.48-2.1.54-4.88c.06-1.15.13-2.3.2-3.45,1.23-.89,1-2.22,1.07-3.49,1-1,1.07-2.24,1.22-3.49q1-2.36,2.09-4.71l1.39-3.39c1.24-.69,1.3-1.9,1.4-3.1,1.77-.66,2.5-2.27,3.4-3.73L1711,538l2.44-2.28a7.14,7.14,0,0,0,3.8-4.19c2.45-.36,4.42-1.73,6.41-3a26.24,26.24,0,0,0,8.35-4.36c1.5-.3,3-.56,4.5-.91,3.09-.72,4.12.58,4,3.59C1740.28,534,1740.2,541.3,1738.89,548.48Z"/><path class="cls-8" d="M112.76,704.19c-.18-8.29-.19-8.48-8.91-8.39-3.94.05-5.48-1-5.34-5.2a64.58,64.58,0,0,1,2.21-15.35c1.23-4.34,3.43-6.44,7.91-3.4,1.51-5,2.17-10,4.59-14.46,1.22-2.25,2.35-4.62,5.39-4.51s4.85,2.31,5.67,5a112.69,112.69,0,0,1,3.79,14.46c1,6.23,1.25,12.58,2,18.87.41,3.7-1.31,4.89-4.7,4.51a14.42,14.42,0,0,0-1.74,0c-8.46,0-8.46,0-8.77,8.65Z"/><path class="cls-7" d="M142.94,340.67l-58.23.07c0-2.12.06-4.23.07-6.35,0-8.91,1.71-10.77,10.83-10.93,10.28-.18,20.58,0,30.87,0,17,.3,16.33-1.43,16.4,16.69A5.51,5.51,0,0,0,142.94,340.67Z"/><path class="cls-11" d="M88.81,641.29l-.51,42.86c-2,.08-2.49-1.48-3.25-2.8-8.21-14.32-15.79-29-23-43.78-.85-1.72-1.83-3.4-1.7-5.43,7.67-.08,15.36.11,23-.32,5.43-.31,7,1.59,5.38,6.66A8.41,8.41,0,0,0,88.81,641.29Z"/><path class="cls-8" d="M144.08,704.17c.15-4.27.27-8.47-6.13-7.27a3.33,3.33,0,0,1-2.24-.37C133,694.75,133.88,682,137,681c2.43-.74,3.25-1.78,3.87-4.11,1.1-4.1,4-6.94,8.45-6.38s7,3.83,7.29,8.43c.18,3.08-.1,6.19.11,9.27.37,5.47.36,9.75-7.52,9-5.12-.5-2,4.68-3.09,7.09Z"/><path class="cls-10" d="M1680.07,652.93c2.4.22,4.8.71,7.2,0a6.19,6.19,0,0,0,5.16,2.15l3.44,1.11q-3.9,15.21-7.79,30.4c-1.18,4.47-4.51,7.5-8,12.43Z"/><path class="cls-10" d="M1662.22,656.46c4.79-2.87,10.29-2.55,15.52-3.45q0,9.27.08,18.53a27.39,27.39,0,0,0,0,10.21q0,4.14,0,8.27c0,.36,0,.73,0,1.09,0,2.75,0,5.51,0,8.26a.56.56,0,0,0,0,.91c-.8,1.45-.18,5.1-3.67,2.35Q1668.19,679.55,1662.22,656.46Z"/><path class="cls-10" d="M1646.83,665.72c2.89-5.09,7.8-7,13.09-8.22,4.42,15,7.48,30.44,12.67,45.26-.72,3.26-2.55,1.78-4.22,1Z"/><path class="cls-10" d="M1646.14,701.71c1-6.63-2.48-12.61-2.78-19.05-.15-3.16-3.41-3.39-4.49-3-5.46,1.88-4.58-1.57-4.42-4.62,5.06-.66,5.8-6.74,10.25-8.16L1666,704c-2.59,1.42-4.84.7-6.91-1.12-2.81-5-6.34-6.14-10.93-2.13A8.42,8.42,0,0,1,1646.14,701.71Z"/><path class="cls-11" d="M1692.43,655a6.19,6.19,0,0,1-5.16-2.15c.43-4.31,2.14-8.81-4.42-10.69-1.85-.53-3.45-3.91-3.71-6.73,3.19,0,6.38-.09,9.57-.11,1.73,0,3.51.14,3.81-2.25l8.1,0a80.1,80.1,0,0,0,12.81,9.71l0,.51c-2.67.06-5.34,0-8,.2-3.77.23-8.21-1.38-11.13.81-2.42,1.82-.29,6.13-1.08,9.25A6.35,6.35,0,0,1,1692.43,655Z"/><path class="cls-5" d="M1692.43,655a6.35,6.35,0,0,0,.83-1.47c.79-3.12-1.34-7.43,1.08-9.25,2.92-2.19,7.36-.58,11.13-.81,2.66-.16,5.33-.14,8-.2-2.19,5.89-4.61,11.66-8.68,16.56-2.34-1-4.42-2.9-7.28-2.27.07-1.18-.71-1.4-1.64-1.45Z"/><path class="cls-11" d="M1715.56,639.23c-7.74-3.69-13.72-9.09-16.77-17.29-.57-1.53-1.83-4.1-.25-4.63,2.59-.88,5.64-.47,8.5-.45,2,0,1.7,1.75,1.83,3a36.39,36.39,0,0,0,6.81,18.07Z"/><path class="cls-12" d="M1672.59,702.76c-5.19-14.82-8.25-30.23-12.67-45.26a1.85,1.85,0,0,1,2.3-1q6,23.09,11.92,46.17Z"/><path class="cls-10" d="M1697.51,657.6c2.86-.63,4.94,1.23,7.28,2.27-2.27,8.37-8.12,14.75-12.28,22.06-.72-2.35.35-4.47.85-6.67C1694.69,669.36,1697,663.7,1697.51,657.6Z"/><path class="cls-12" d="M1666,704l-21.33-37.13c.33-1.09,1.18-1.22,2.13-1.14l21.54,38Z"/><path class="cls-2" d="M1364.07,670.76q0-44.93.07-89.84c1.24,1.23,1,2.84,1,4.34q0,41.5,0,83a16.1,16.1,0,0,1-.32,2.27A.91.91,0,0,1,1364.07,670.76Z"/><path class="cls-12" d="M1697.51,657.6c-.49,6.1-2.82,11.76-4.15,17.66-.5,2.2-1.57,4.32-.85,6.67-.23,2.74-2.06,3.94-4.43,4.62q3.89-15.19,7.79-30.4C1696.8,656.2,1697.58,656.42,1697.51,657.6Z"/><path class="cls-12" d="M1615.73,704.86a125.94,125.94,0,0,1,28-.05c-1.4,1.91-3.47,1.33-5.27,1.25C1630.87,705.74,1623.31,705.28,1615.73,704.86Z"/><path class="cls-12" d="M1646.14,701.71a8.42,8.42,0,0,0,2-1c4.59-4,8.12-2.85,10.93,2.13-.47,1.39-1.26,2.31-2.9,2-.32-4.28-2-5.94-6-3.11-1.36,1-2.74,1.89-4.11,2.84Z"/><path class="cls-10" d="M1646.11,704.61c1.37-1,2.75-1.88,4.11-2.84,4-2.83,5.68-1.17,6,3.11l-2.86,0a4.84,4.84,0,0,0-4.22,0l-3-.34Z"/><path class="cls-12" d="M1588,704.18c6.23.45,12.52-.79,18.71.67-6.27,1.74-12.55-.14-18.82.09C1588,704.69,1588,704.44,1588,704.18Z"/><path class="cls-4" d="M1677.83,681.75a27.39,27.39,0,0,1,0-10.21A19.64,19.64,0,0,1,1677.83,681.75Z"/><path class="cls-12" d="M1608.7,704.8a4.22,4.22,0,0,1,5.09.05A8.66,8.66,0,0,1,1608.7,704.8Z"/><path class="cls-11" d="M339.07,230.4a2.78,2.78,0,0,1,1.5,2.68c-.18.7-.36,1.42-.54,2.13C338.47,233.85,339.08,232.07,339.07,230.4Z"/><path class="cls-12" d="M1649.14,704.81a4.84,4.84,0,0,1,4.22,0A6.18,6.18,0,0,1,1649.14,704.81Z"/><path class="cls-4" d="M1677.86,691.11c0-.36,0-.73,0-1.09a5.17,5.17,0,0,1,.36.8C1678.23,690.88,1678,691,1677.86,691.11Z"/><path class="cls-4" d="M1677.81,700.28a.56.56,0,0,1,0-.91,6.3,6.3,0,0,1,.34.69S1677.93,700.21,1677.81,700.28Z"/><path class="cls-1" d="M1448.15,691.21c.11,2.57-.87,3.76-3.69,3.7-9.42-.2-18.85-.19-28.27-.26q0-18,0-35.92c2.48,0,5,.09,7.46.08,11.3,0,11.1,0,11-11.17,0-3.79-1.45-4.48-4.72-4.31-4.59.25-9.19.15-13.79.19,0-8.07,0-8.07,8.07-8.07q11.61,0,23.21,0l-.18,7.85c-7,.15-6.5.18-7.06,10.1-.36,6.43,3.33,5.5,7.12,5.41l.87,2.77a.87.87,0,0,0,0,1,100.36,100.36,0,0,0,0,23.24v.06A7.42,7.42,0,0,0,1448.15,691.21Z"/><path class="cls-1" d="M364.31,417.78c-2.49,0-5-.1-7.49,0-3.9.21-6.6-.25-6.64-5.39s2.49-6.48,6.75-6a122.81,122.81,0,0,0,17.77,1c4.06-.18,3.37,2.79,3.36,5.19s.7,5.32-3.37,5.21C371.24,417.7,367.77,417.77,364.31,417.78Z"/><path class="cls-1" d="M364.08,472.36c2.7,0,5.4.12,8.09,0,3.66-.21,6.05.07,6.11,5s-2.14,5.69-6.24,5.52c-5.57-.24-11.17-.24-16.75,0-4.38.18-4.91-2.21-5.06-5.78-.17-4.05,1.66-5,5.19-4.73C358.29,472.52,361.19,472.36,364.08,472.36Z"/><path class="cls-1" d="M1502.09,518a30.78,30.78,0,0,0-.17,3.47l-5.62.31"/><path class="cls-1" d="M355.28,515.23a120.11,120.11,0,0,0,16.21,0"/><path class="cls-1" d="M364.6,385.35c2.51,0,5,.14,7.53,0,3.7-.25,6.06.09,6.13,5,.08,5.1-2.17,5.67-6.26,5.5-5.59-.24-11.2-.19-16.79,0-3.92.12-4.94-1.79-5-5.33s1.29-5.39,5.09-5.19C358.42,385.48,361.51,385.35,364.6,385.35Z"/><path class="cls-1" d="M364.71,503.74c-3.08,0-6.17-.13-9.25,0-3.69.2-5.17-1.31-5.21-5.06-.05-4,1.42-5.56,5.44-5.42,6,.22,12,.29,17.92,0,4.33-.22,4.47,2.11,4.54,5.37.08,3.53-.7,5.52-4.77,5.13C370.52,503.51,367.6,503.73,364.71,503.74Z"/><path class="cls-1" d="M395,515.3l8.59,0"/><path class="cls-1" d="M1536.86,520.57c-9.13,2.15-18.38.74-27.57.86"/><path class="cls-1" d="M398.56,417.78a64.38,64.38,0,0,0-6.95.05c-5.14.59-6.9-1.55-6.57-6.61.36-5.63,3.53-4.47,7.28-4.1,4.95.49,10,.85,15-.34,3-.73,4.73.56,4.39,3.46-.32,2.71,2.46,7.19-3.29,7.51C405.13,417.93,401.84,417.78,398.56,417.78Z"/><path class="cls-1" d="M364.24,438.78c-2.7,0-5.4,0-8.11,0s-6.09.27-5.61-3.78c.37-3.06,0-7.19,5.6-6.77a153.54,153.54,0,0,0,17.95.07c4.22-.17,4.05,2.37,4,5.24s.23,5.56-4,5.28C370.82,438.6,367.53,438.77,364.24,438.78Z"/><path class="cls-5" d="M1416.22,643.52c4.6,0,9.2.06,13.79-.19,3.27-.17,4.7.52,4.72,4.31.06,11.15.26,11.16-11,11.17-2.49,0-5,0-7.46-.08Q1416.22,651.13,1416.22,643.52Z"/><path class="cls-1" d="M329.39,395.8a51.8,51.8,0,0,0-6.94.05c-5,.68-6.38-1.61-6-6.24.23-2.72.69-4.35,3.89-4.28,6.36.14,12.73.18,19.08,0,4.32-.14,3.79,2.68,3.88,5.38.1,2.94,0,5.45-4.1,5.15C336,395.61,332.66,395.8,329.39,395.8Z"/><path class="cls-1" d="M329.68,482.78c-2.31,0-4.62,0-6.93,0-6.22,0-6.82-.85-6.26-7,.23-2.45,1.18-3.4,3.57-3.38,6.55,0,13.1.1,19.65,0,4.49-.08,3.42,3.11,3.57,5.63.15,2.69,0,5.08-3.77,4.86C336.24,482.63,333,482.78,329.68,482.78Z"/><path class="cls-1" d="M398.28,450.36c2.5,0,5,.16,7.5,0,4.11-.35,6.28.47,6.22,5.5s-2.54,5.09-6.15,5c-5.57-.14-11.16-.22-16.73,0-4.19.17-4-2.39-4-5.24s-.3-5.56,3.95-5.28C392.11,450.52,395.2,450.36,398.28,450.36Z"/><path class="cls-1" d="M364.89,460.78c-2.5,0-5-.17-7.5.05-4.16.35-6.26-.55-6.2-5.55s2.58-5.07,6.18-5c5.39.14,10.79.26,16.16,0,4.23-.24,4.61,2,4.63,5.3s-.38,5.67-4.61,5.26C370.69,460.56,367.78,460.78,364.89,460.78Z"/><path class="cls-1" d="M330.37,450.35a47.08,47.08,0,0,0,6.93-.07c5.68-.87,6.35,2.22,6.06,6.75-.18,2.65-1,3.83-3.76,3.78-6.55-.1-13.1-.09-19.66,0-4.07,0-3.35-2.85-3.36-5.24s-.67-5.32,3.38-5.23C323.43,450.41,326.9,450.35,330.37,450.35Z"/><path class="cls-1" d="M329.63,503.72H322.7c-6.17,0-6.77-.86-6.2-7.07.23-2.51,1.29-3.34,3.62-3.32,6.54.05,13.08.1,19.62,0,4.51-.07,3.37,3.16,3.54,5.65.19,2.76-.1,5-3.84,4.79C336.18,503.56,332.9,503.72,329.63,503.72Z"/><path class="cls-1" d="M330.19,428.35c2.31,0,4.62,0,6.93,0,5.87,0,7.66,2.55,6.13,8.22-.55,2-1.87,2.2-3.46,2.2-6.55,0-13.1-.08-19.65,0-4.47.07-3.43-3.11-3.58-5.64-.17-2.73,0-5.05,3.8-4.85C323.63,428.49,326.91,428.35,330.19,428.35Z"/><path class="cls-1" d="M316.48,518.9c.23-2.77,1.33-3.65,3.93-3.61,6.36.08,12.73.15,19.09,0"/><path class="cls-1" d="M329.91,417.8a45.62,45.62,0,0,0-6.92.06c-5.69.87-7-1.87-6.51-6.89.25-2.76,1.34-3.65,3.94-3.62,6.35.08,12.71.17,19.06,0,4.33-.12,3.72,2.74,3.83,5.42.12,3-.1,5.4-4.16,5.09C336.09,417.6,333,417.79,329.91,417.8Z"/><path class="cls-1" d="M398,395.79a48.37,48.37,0,0,0-6.92.06c-5.76.87-6.22-2.38-6-6.81.15-2.72,1.15-3.75,3.82-3.71,6.35.09,12.7.18,19.05,0,4.27-.13,3.85,2.58,3.9,5.34.05,2.91.06,5.47-4.07,5.18C404.5,395.61,401.22,395.79,398,395.79Z"/><path class="cls-1" d="M398.35,438.77c-2.51,0-5-.1-7.52,0-3.39.17-6,.07-5.83-4.67.14-4.12,1.27-6,5.67-5.83,5.77.26,11.57.2,17.35,0,3.79-.12,3.92,2.17,3.79,4.87s.81,5.75-3.63,5.6C404.91,438.67,401.63,438.76,398.35,438.77Z"/><path class="cls-1" d="M398.69,472.36h6.94c6.21,0,6.81.85,6.23,7.08-.23,2.48-1.23,3.37-3.59,3.35-6.37-.06-12.73,0-19.1,0-4.45,0-3.88-3.2-4.08-6.1-.22-3.26,1.08-4.55,4.34-4.35C392.51,472.51,395.6,472.36,398.69,472.36Z"/><path class="cls-1" d="M398.14,503.73c-2.31,0-4.63-.07-6.94,0-3.46.12-6.33.3-6.23-4.86.09-4.93,2.35-5.77,6.48-5.6,5.19.21,10.41.26,15.6,0,4-.21,4.84,1.49,4.86,5.1,0,3.79-.81,5.84-5.1,5.42A86.4,86.4,0,0,0,398.14,503.73Z"/><path class="cls-1" d="M1467.56,582.33c-.64,2-2.13,3.25-3.64,4.51-6,0-11.92-.32-17.85,0-4.24.22-5.71-1.09-5.66-5.47,0-4.13,1.49-5.34,5.4-5.13a105.2,105.2,0,0,0,15,0C1465.69,575.73,1468,577.33,1467.56,582.33Z"/><path class="cls-1" d="M1496.19,532.32q0,5.7,0,11.4"/><path class="cls-1" d="M1496.21,554.32l.3,9.26-7.09,2.64c-3.57-2.16-7.55-.3-11.42-1.18-4.55-1-3.5-3.66-3.66-6.33"/><path class="cls-1" d="M1456,598.37q-2.38,5.32-4.75,10.65c-1.92-.09-3.89-.52-5.75-.23-5.38.83-5.44-3.28-5.83-6.45-.54-4.48,3-4,5.91-4C1449.08,598.29,1452.56,598.35,1456,598.37Z"/><path class="cls-2" d="M699.9,184.45c1,3.76,3,13,4.17,16.47,3.86,15.27,7.65,30.56,11.6,45.8,5.72,22.11,11.54,44.19,17.32,66.28-2.76,0-8.33-.53-11.09-.55-1-4-.24-6.69-1.92-10.21-1.07-2.24-2.18-3.83-5-3.89s-4.2,1.26-4.91,3.77c-1.31,4.61-4.31,8-8,10.84-4.46.45-9.13.49-13.13.49h-10c-8,0-12.61-4.05-14.95-11-1.19-3.58-3.3-3.56-6.44-4.06-5.61-.9-3.41,14.1-5.61,14.1-3,0-1.19.07-7.76.45l-2.7.07c3.69-14.91,7.27-29.83,11.08-44.7C658,247,671.41,198.66,676.9,177.45c2-9,5.28-13,7.44-22a42.29,42.29,0,0,1,3.75-11.42c5.15,13.64,6.26,24.25,10.81,37.38ZM674,257.71c-8.61,0-8.58,0-10.69,8.22-1.53,6-3.14,11.9-4.73,17.84-.47,1.77-2,3.94.61,5,2.81,1.13,3.6-1.46,4.43-3.36,3.08-7.07,7.95-12.29,15.36-14.8,2.19-.74,2.94-2,3.14-4.21C682.87,258.13,682.54,257.7,674,257.71Zm17.51,5.21c-.31,3.23-.08,6.28,3.25,7.44a23.63,23.63,0,0,1,15.53,15.79c.54,1.65,1.56,3.4,3.75,2.75,2.71-.81,1.79-3.11,1.36-4.84-1.3-5.2-2.83-10.35-4.23-15.53-3.55-13.08-.36-10.41-14.18-10.88C692.87,257.51,690.51,258.47,691.49,262.92Zm0-28.94a51.94,51.94,0,0,1-.06,7c-.68,5,1.14,7.3,6.36,6.45a15.56,15.56,0,0,1,3.48,0c3.35.21,4.6-1,3.58-4.48-1.84-6.26-3.72-12.54-5-18.92-.75-3.68-3-3.39-5.52-3.31-3.32.11-2.77,2.58-2.81,4.63C691.39,228.18,691.43,231.08,691.44,234Zm-9.36-.1c0-2.9,0-5.8,0-8.7,0-2.09.39-4.44-2.89-4.57-2.83-.11-4.73.48-5.34,3.81-.87,4.73-2.3,9.35-3.44,14-2.27,9.34-2.26,9.16,7.21,9,3.7-.06,4.72-1.51,4.5-4.86C681.93,239.69,682.08,236.78,682.08,233.88Z"/><path class="cls-13" d="M918.9,663.45c-27.81-.1-92.75-.51-120.57-.48-6.15,0-12.35-.72-18.47.56-18.7-.64-37.4-.61-56.1,0-2.69-.13-5.38-.46-8-.34-3,.14-4.07-.92-4-4,.26-16.35-9.67-52.68-13.58-68.73,0,0-6-23-39-29s-64,10-77,41l-2.43,6.24a42.5,42.5,0,0,1-2.43,7l.13-.14a30.44,30.44,0,0,0-3,12c-1,11.56-1.62,23.19.62,34.75l-.24.44-.88.35-2.42-.11c-5.57-.52-8.57.48-17.59.12l.2.46a2.94,2.94,0,0,0-2.83-.25l-2.08-.59c-3-3.49-6.22.43-9.31-.33l-1.75,0-1.33.37-1.92.66-3.34,0-2.35-.73c-9.27.75-12.19-1.06-18.28-1.7l-.12-.13c.11-1.43-.47-2.23-2-2.15a4.21,4.21,0,0,1-2-3.36c-1.91-5.91-1.95-9.39-1.91-14.91.1-11.56-1-21.45-1-33,0-10.11,0-23,0-36,0-8.59,1.07-20.18,1-29-.51-63.15.05-128.86,0-192v-23c0-1-.24-11.7,0-12v-3l1-1h11c1,0,4.64.33,5.42.07,5.58-.07,8.08-.1,12.14-.09q147.28.24,294.55.12c29.74,0,59.16-1.15,88.89-1.1.08,11.19.54,23.62.54,34.81q0,121.88-.09,243.75M530.9,625v0c3.28,0,6.57.12,9.84,0,2.36-.11,4.15-1.48,4.32-3.88a3.68,3.68,0,0,0-3.53-3.94c-6.74-.25-13.5-.29-20.24,0a3.7,3.7,0,0,0-3.54,4.45c.35,2.4,1.88,3.59,4.47,3.47C525.11,624.89,528,625,530.9,625Z"/><path class="cls-4" d="M416.41,572.86V554.19c0-1.51,0-3,0-4.54l.09-2.38c0-.38.05-.77.07-1.15,0-1.16-.08-2.33-.13-3.49l0-1.15q0-32.51,0-65v-8q.25-2.81.53-5.59c7.09-2.42,14.16-4.9,21.27-7.22,2.68-.88,3.52-3.44,5.29-5.13,15.15-14.41,32.79-22.51,54.05-21.63,2.31.09,4.62,0,6.93.06a39.13,39.13,0,0,1,.39,4q.06,108.69.08,217.36c-2.6.63-4.67,2.22-6.79,3.71.33-2.87-2.18-4.34-3.2-6.53a122.43,122.43,0,0,0-39.16-47.91c-11.93-8.75-24.5-16.18-39-19.85l-.24,0Z"/><path class="cls-1" d="M420.18,218.19c11.3-.41,22.59-.68,33.88.33-.07,13.48-.27,27-.12,40.45,0,4-1.12,5.44-5.23,5.3-7.89-.28-15.81-.25-23.7,0-3.88.12-4.94-1.33-4.9-5C420.28,245.55,420.18,231.87,420.18,218.19Z"/><path class="cls-1" d="M465.41,218.61l34-.07c-.09,13.44-.29,26.89-.18,40.34,0,3.89-.92,5.55-5.15,5.39-7.92-.29-15.86-.26-23.78,0-3.93.13-4.9-1.4-4.87-5.07C465.6,245.66,465.45,232.14,465.41,218.61Z"/><path class="cls-1" d="M373.57,234.58c2.67-4.56,7.46-7.8,7.95-13.78.13-1.68,2.12-3,4.43-2.94,7.53.2,15.06.27,22.58.39,0,13.68-.08,27.36.11,41,.05,3.75-1.1,5.09-4.92,5-8.29-.24-16.59-.3-24.86,0-4.33.17-5.12-1.66-5.06-5.44C373.93,250.75,373.67,242.66,373.57,234.58Z"/><path class="cls-9" d="M416.8,579.74c14.5,3.67,27.07,11.1,39,19.85A122.43,122.43,0,0,1,495,647.5c1,2.19,3.53,3.66,3.2,6.53-3.08,1.18-5.8,2.79-7.32,5.9-1.67-.12-2.24.84-2.29,2.32-6.33,3-10,8.39-12.5,14.67a2.61,2.61,0,0,0-1.51,2.74c-3.12,4.47-5.6,9.2-5.88,14.8l-52.09,0Q416.69,637.08,416.8,579.74Z"/><path class="cls-14" d="M935.9,597.45c-.13-2.31-1.38-9.32-1.38-11.63q0-96.75,0-193.49c0-7.66,0-8.08,7.74-7.57,9.41.62,18.7-2.87,28.18-.33,2.55.69,4.5-1.09,4.72-4.4.51-7.54,2.3-9.06,10-9.24,3.28-.07,6.57,0,9.86,0h110.13c8.08,0,9.59,1,10.3,8.87.32,3.65,2.13,4,4.82,4.07m65,2.59,2.48-.39c2.65,1.33,6.47.69,6.75,5.56.55,9.69,7.26,12.88,16.25,8.14,3-.48,3.1,3.34,5.49,3.81q4.26,5.73,8.53,11.44c2.8,4.95,5.21,10.14,9,14.51a25.63,25.63,0,0,0,4.92,9.94c1.24,4.6,3.52,8.74,5.82,12.87a51.22,51.22,0,0,0,5.46,12.68c2.17,6.58,4.27,13.2,8.48,18.86.25,3.6,2.15,6.57,3.67,9.69,1.37,2.61,1.11,6.2,4.54,7.58-.89,5.74,2.47,9.72,5.68,13.76-.28,2.74,1.2,4.46,3.35,5.79a4.14,4.14,0,0,0,2.37,3.62,18.12,18.12,0,0,0,15.44,10.42c24.11,2.12,43.53,17.88,50.29,41,.73,2.5,1.9,5.13.72,7.87-5.61,0-11.22-.2-16.82-.11-4.68.09-6.94,2.85-7.21,7.37-.41,6.72,1.39,10.33,6.18,10.57,6.33.31,12.75.92,19-.6,1.59,8.53.41,17.14.77,25.71.12,2.87.08,5.74.12,8.61-2.32.07-4.64.21-7,.18-49.3-.64-98.6,1.09-147.89-.92-18.74-.77-37.53-.12-56.3-.13-2.29,0-4.67.4-6.72-1.13-.86-10.81-6.11-28.65-10.75-38.53.14-.45,3.33,6.46,3.46,6,.58-2.55,1.26-5.05,4.1-7,1.9,4.95,3.6,9.41,5.32,13.86.43,1.1,1,2.33,2.43,1.84s1.08-2,.71-3a135.45,135.45,0,0,0-5.33-14c-1.78-3.65-5-2.91-7.67-.78-1.12.89-1.42,2.73-3,3.33-1.27-1.68-2.59-3.31-3.79-5-22.54-32.31-62.55-39.35-92.54-15.67-19.92,15.72-28.49,37.3-29.34,62.26-1.73,1.64-3.89,1.41-6,1.41l-36.47-.06-1.5.07-12.44-.06c-2-1.57-1.23-3.8-1.29-5.78-.13-4.31.39-8.66-1.25-12.82M1119.9,383.45c3,.05,15.73,1.15,18.62.12,7.38.88,5.38,1.88,9.38,4.88,0,1.33-4.57,6.77-2,7,3,.27.49,7.22,3.61,6.14,4.22-1.48,7-3.5,4.3-8.4-1.59-2.87,2-5.08,1-7.86a17.86,17.86,0,0,1,2.79-.34c1.48.05,1.19,1.08,1,2-.69,3,.47,5.27,2.79,7.07,1,.73,2,1.36,3.07.34,1.28-1.18.09-1.91-.51-2.87-2.58-4.17-1.81-5.49,3.32-5.63,3.66-.09,7.34.2,11,0s4.58,1.24,4.63,4.69m-91.41,137c-1.54-.21-3.45.46-5.29-2.51,5.13,0,9.42.05,13.71,0,1.61,0,4.62.09,3.48-2.25-2.3-4.72-2.69-10.54-7.41-14m-75.55-105c-24.17,0-48.35,0-72.52-.07-4.73,0-5.08,2.63-5.08,6.39.09,36,.15,71.91-.07,107.86,0,5.44,1.31,7.24,7.08,7.2,39.83-.26,79.67-.11,119.51-.16m-32.36-88.56-20-7c-.41-.34-2.58-8.67-3-9,0,0,2-5,2-5m225,193.44,7.42-.21c5.43-.13,8.91,1,8.59-.23,20.23-.1,35,.19,55.28,0,2.14,0,5.43.86,5.45-2.5,0-3-3-2.86-5.35-2.88-2.12,0-4.24,0-6.36,0-19.07-.09-50,.45-69,.36-1.07-.79.29-2.67,0-4,2.31-.15,14.28-.18,16.59-.18,18.56,0,37.12.08,55.67-.1,2.73,0,7.72,1.9,7.8-2.07.1-5-5.23-3.14-8.3-3.18-19.52-.27-52.24-.37-71.76-.47.39-1-1.38-1-1-2-50.45-.85,13.71-1.51,22.28-1.43,18,0,35.94,0,53.9-.06,2,0,5.37,1.18,5.16-2.61-.17-3.24-3.2-2.72-5.45-2.72-23,0-46,.06-69,0-4,0-5.87,1.3-5.29,5.4q0,8.34,0,16.68C1237.55,609.11,1237.9,608.45,1240.89,608.89Zm-107.32-90.5c4.46,6.58,10.83,8.14,18.28,6.05,2.11.13,4.22.37,6.33.37q50.11,0,100.23,0c7.87,0,7.83,0,4.74-7-6.54-14.77-12.88-29.63-19.63-44.31-4.06-8.84-6.72-18.36-12.39-26.45-1-3.32-1.7-6.78-5-8.73-.47-6.61-4.8-11.12-8.64-15.89-2.65-6.36-7.26-11.26-12-16a7.16,7.16,0,0,0-5.25-2.1q-12.71.19-25.41.43a93.71,93.71,0,0,0-19.74-.06,71.31,71.31,0,0,0-16.26.07c-18.1-1-36.21-.28-54.32-.37-1.83,0-4.27-1.1-5.36.83s1,3.47,2,5m79.45-10.19c4.43,1.72,8.22,1.21,11.87.68,2.51-.36,3.82-2.64,4.27-5a6.37,6.37,0,0,0-1.91-5.75,2.88,2.88,0,0,0-3.71-.54c-1.59,1.1,0,1.71.57,2.6,2.66,4.28,1.57,6-3.63,6.34C1165.79,398.62,1163.4,397.77,1160.54,400.13Z"/><path class="cls-1" d="M1244,339.56c18,0,35.94.16,53.9-.11,4.68-.06,5.87,1.45,5.88,5.93s-1.28,5.92-5.91,5.89c-35.74-.18-71.48-.09-107.22-.11-5.76,0-8.75-4.87-6.23-10,1.16-2.37,3.32-1.55,5.1-1.55C1207.63,339.54,1225.79,339.56,1244,339.56Z"/><path class="cls-1" d="M1243.54,375.63c-18,0-35.91-.05-53.86.05-3.56,0-6-.32-5.66-4.87.27-4.06.61-7,6-6.94q54.15.25,108.3,0c4.64,0,5.35,1.8,5.38,5.81,0,4.27-.83,6.14-5.72,6.06C1279.84,375.45,1261.69,375.63,1243.54,375.63Z"/><path class="cls-15" d="M1266.57,500c-3.43-1.38-3.17-5-4.54-7.58,1.52-1.65.82-3.68.84-5.54.07-11,0-22,.05-33,0-7.55.07-7.58,7.89-7.63l12.16-.12-.09-.11a1.3,1.3,0,0,0,1.39,1.26l-.09-.07c-.2,1.12-.16,2.11,1.22,2.44l.46.11c-.11.15-.32.33-.29.44a6.05,6.05,0,0,0,.41.95,1.33,1.33,0,0,0,.24.86,42.59,42.59,0,0,0,0,11.88,48,48,0,0,0,0,12.67,54.09,54.09,0,0,0,0,12.78q-.21,2.82-.4,5.64l-.48,1.45c-.77,1.55-1.7,2.95-3.51,3.45-3.79.44-5.18-1.31-4.74-5a26.08,26.08,0,0,0,0-4.59c-.1-1.54-.27-3.22-2.39-3.23s-2.25,1.67-2.3,3.22c-.12,3.25-.17,6.49-.25,9.74l-2.1.08-1.19.06Z"/><path class="cls-1" d="M1216.19,402.43c-2.39-.47-2.44-4.29-5.49-3.82l-.3-1.95c2.55-2,1.17-4.74,1.53-7.15,8.2-2,16.47,1,24.59-.23,3.82-.59,5,.18,4.68,4.43,2.31-7.44,7.42-4.43,12-4.36,14.85.24,29.72,0,44.57.15,1.92,0,4.85-1.15,5.46,1.66a25,25,0,0,1-.06,8.58c-.21,1.59-2.13,1.38-3.43,1.33-16-.63-32,1.46-47.88-1.07a11.65,11.65,0,0,0-4,.52c-5,1.06-5,1.08-6.33-4-2.54,7-8.68,4.22-13.13,4.05A31.64,31.64,0,0,0,1216.19,402.43Z"/><path class="cls-1" d="M1233.68,428.38c-3.75-4.37-6.16-9.56-9-14.51,24.34,0,48.68.16,73-.09,5.14,0,6,1.88,6,6.4-.06,4.33-.53,6.62-5.86,6.53-19.32-.32-38.64-.17-57.95-.1C1237.74,426.61,1235.13,425.67,1233.68,428.38Z"/><path class="cls-1" d="M1286.22,452a1.33,1.33,0,0,1-.24-.86c.06-.16.2-.33.18-.46a7.74,7.74,0,0,0-.3-.93l-.46-.11a2.32,2.32,0,0,0-1.22-2.44l.09.07a1.34,1.34,0,0,0-1.39-1.26l.09.11c-4.73-3.92-10.3-1.09-15.43-1.87s-8.47,1.64-9.31,7l-13.81,0c-2.3-4.13-4.58-8.27-5.82-12.87a34.52,34.52,0,0,0,9.13,1.07c16.78-.08,33.57.16,50.35-.16,5-.09,5.55,2.06,5.62,6.18s-1,6-5.48,5.73C1294.24,450.92,1290.11,450.29,1286.22,452Z"/><path class="cls-1" d="M1286.21,476.54a48,48,0,0,1,0-12.67c3.47,0,6.94-.08,10.4,0,6.25.09,9.28,5.15,6.75,11-.85,1.95-2.42,1.62-3.88,1.65C1295.07,476.55,1290.64,476.52,1286.21,476.54Z"/><path class="cls-1" d="M1285.79,495q.2-2.82.4-5.64c3.85,0,7.71.2,11.54-.11,4.4-.35,6.18,1,6,5.74-.15,4.18-.81,6.11-5.7,6.16-5.52.05-11-.07-16.52-.23a2.43,2.43,0,0,1,.28-1c1.81-.5,2.74-1.9,3.51-3.45C1285.85,496.05,1286.13,495.61,1285.79,495Z"/><path class="cls-1" d="M1278,523.17a4.14,4.14,0,0,1-2.37-3.62c.48-1.57,1-3.14,1.43-4.71,7,0,13.94.24,20.87-.17,4.76-.28,6.33,1.56,5.71,6C1295,520.5,1286.34,520.55,1278,523.17Z"/><path class="cls-9" d="M1277,514.84c-.48,1.57-1,3.14-1.43,4.71-2.15-1.33-3.63-3-3.35-5.79q-.09-6.87-.17-13.73c.08-3.25.13-6.49.25-9.74.05-1.55.13-3.24,2.3-3.22s2.29,1.69,2.39,3.23a26.08,26.08,0,0,1,0,4.59c-.44,3.66,1,5.41,4.74,5a2.43,2.43,0,0,0-.28,1l0,0c-1.43.26-3.13-.59-4.23,1Q1277.18,508.36,1277,514.84Z"/><path class="cls-1" d="M1277.34,501.86c1.1-1.61,2.8-.76,4.23-1C1280.48,502.49,1278.83,501.86,1277.34,501.86Z"/><path class="cls-16" d="M1129.5,383.59l-1-.95Z"/><path class="cls-6" d="M920.51,593.7l.51.23-.47-.28Z"/><path class="cls-5" d="M1628.42,643.51a41.09,41.09,0,0,0-3.38,15.13,1.64,1.64,0,0,0-1.09.33l-27.85-.38c-.17-5-1.67-10.05,0-15.08l31.26-.35A1.28,1.28,0,0,0,1628.42,643.51Z"/><path class="cls-1" d="M1627.37,643.16l-31.26.35c-.09-2.69-.17-5.38-.26-8.07l36.37,0-3.53,5.87Z"/><path class="cls-11" d="M1596.1,658.59,1624,659l.21,2.26c-2.75,2.08-4.07,5.16-5.71,8l-22.75-.17Q1595.91,663.84,1596.1,658.59Z"/><path class="cls-12" d="M1595.7,669.09l22.75.17a3.79,3.79,0,0,1-1.4,3.23c-4.47-.12-6.33,1.5-4.4,6.11,1,2.43,1.62,5,2.4,7.58-.22,1.29.1,2.78-1.32,3.63-1.14-4.24-2.27-8.48-3.43-12.71-.33-1.22-.4-3.1-2.39-2-2.28,1.27-5.31,1-7,3.41l-5.77-.4C1595.07,675.09,1594.35,672,1595.7,669.09Z"/><path class="cls-5" d="M1447.38,658.84c-3.79.09-7.48,1-7.12-5.41.56-9.92.1-9.95,7.06-10.1A21.5,21.5,0,0,1,1447.38,658.84Z"/><path class="cls-17" d="M1583.43,596h2.27c0,.47,0,1,0,1.42"/><path class="cls-5" d="M1448.26,662.64a.87.87,0,0,1,0-1A1.9,1.9,0,0,1,1448.26,662.64Z"/><path class="cls-1" d="M938.14,182.55c.34,3.84.43,7.72,1.07,11.5a38.58,38.58,0,0,0,38.47,32.72c15.86.1,31.72.14,47.58.21-12.11,24.94-47.08,34-70.93,17.09-13.92-9.86-20.87-23.59-21.62-40.12C932.38,196.7,933.67,189,938.14,182.55Z"/><path class="cls-18" d="M582.9,599.45c6-13.45,14.61-21,26-29,27.51-19.27,68-13,86.23,14.07,1.82,2.21,3.74,4.34,5.61,6.51,0,0,9.09,12.57,10.18,19.12.08.46,3,11.9,3,12.3,0,.07,3,21,.58,37.73-.05,3.05,1,4.11,4,4,2.67-.12,5.37.21,8,.34-5.41,14.4-15.47,24.65-28.67,32.09-15.16,6.69-31.2,4.26-47,4.59,1.42-1.61,3.59-1.52,5.33-1.8,21.45-3.41,39.8-26.57,43.31-48.26a71,71,0,0,0-3.49-37.39c-.67-1.77-11.15-19.27-16.15-22.27C660.9,577.45,621.9,593.45,582.9,599.45Z"/><path class="cls-18" d="M582.9,599.45c-.33.78-4.18,7.52-4.51,8.3l.09-.06a12.83,12.83,0,0,1-2.44,7l.13-.14c-3.27,13.87-3.27,29.87-2.68,45,0,.7,0,1.42.07,2.13l2.2.63,2.51-.08c3.85-.09,16.79,1.25,20.63,1.17.35-2-2.51-8.13-3-10-3.33-12.89-.47-32,3-45,1-2,20-24,20-27"/><path class="cls-18" d="M1103.8,589c-3,0-6-.29-9.07-.45-15.27-16.79-46.46-21.26-67.31-2.52-21.54,19.36-26,43.44-19.6,70.55.44,1.87.8,3.75,1.19,5.62l-16.67,0q0-13.41-.11-26.82c.85-25,9.42-46.54,29.34-62.26,30-23.68,70-16.64,92.54,15.67,1.2,1.72,2.52,3.35,3.79,5"/><path class="cls-18" d="M1109.9,583.45c13,8,17.89,37.72,18.75,48.53-3.17,4.55-5.8,9.22-4.74,15.15a33.52,33.52,0,0,1,.06,5.76c0,12.42,0,12.41,12.67,12.55,1.15,0,2.29.18,3.44.27-3.09,6.12-6.38,11.93-11.52,16.86-4.51,4.33-10.52,6.79-14.18,12-15.79,5.87-32.23,4.75-48.58,4.58,1.43-1.6,3.59-1.49,5.33-1.79,20.52-3.52,39.49-25.25,43.28-48.26,2.31-14,.91-27.42-4.85-40.38-1.66-3.28-10.66-17.28-13.66-19.28"/><path class="cls-10" d="M835.78,694.69l-117.55,0c15.15-20.64,35.7-30.82,61.11-31.66,7.88.1,15.76.23,23.65.27,2.37,0,4.54,0,5.73,2.71C814.31,678.74,823.93,687.77,835.78,694.69Z"/><path class="cls-15" d="M1249.19,699.18c-9.73,1.11-18.77-2.28-28-4.33a46.79,46.79,0,0,0-4.4-3.58c-10-6.34-17-15.2-22.19-25.64q47,0,94.05,0a14.33,14.33,0,0,1,3.27.76c-6.2,13.13-15.83,22.81-29.25,28.46C1258.32,696.62,1253.69,697.74,1249.19,699.18Z"/><path class="cls-10" d="M1194.59,665.63c5.21,10.44,12.23,19.3,22.19,25.64a46.79,46.79,0,0,1,4.4,3.58q-49.93-.06-99.88-.14c-2.31,0-4.61-.08-6.92-.13,3.66-5.22,9.67-7.68,14.18-12,5.14-4.93,8.43-10.74,11.52-16.86Z"/><path class="cls-8" d="M253.69,655c-.05,9.44-.19,18.88-.09,28.31,0,2.17,2,3.59,3.23,5.29s3.55,3.08,3.53,5.69c-8.34,3.52-16.75-.56-25.16.12-2,.16-4.15.24-6.24.22-.81-9.65-3-19.8,9.18-24.63.07,0,.05-.31.1-.62-3.77-.65-5.59,4-9.83,3.5,1.67-7.6-2.8-15.72,3-22.81.21-.27-.1-1.4-.18-1.4-5.19-.12-2.17-4-2.45-6-.52-3.61-.15-7.36-.15-11l-1.5,0c-2.1,10.16.49,20.55-.77,30.69-3.24.71-5.22-3.13-9.09-1.81l5.6,3c3.34,1.83,5.72,11.17,3.53,15.49-2,4-5.08,0-7.62.53a17.8,17.8,0,0,0-2.19,1.21c10.76.13,10.71,6.49,10.14,13.17a2.76,2.76,0,0,0,.06.57l-13.13,0c-.05-1.74-.1-3.48-.14-5.22q0-8.43,0-16.85c0-10,.06-20,0-30,0-2.57-.08-5.22,2.43-6.69a12.73,12.73,0,0,0,6.87-11.18c.14-3,2.52-4.58,5.63-4.71a5,5,0,0,1,5.47,4.16,31.31,31.31,0,0,1,.76,6.84c.11,6.74.1,13.47,1.09,20.15.81,5.42,2.8,10.07,8.78,12.64.21-3.59.39-6.63.57-9.67,2.11-1.81,3-4.74,5.55-6.14C253.92,649.35,252.72,652.65,253.69,655Z"/><path class="cls-15" d="M889.9,696.45l-27,3c-3,1-9,.32-12.37-.8-4.82-1.61-9.83-2.67-14.75-4-11.85-6.92-21.47-16-27.06-28.72-1.19-2.71-3.36-2.69-5.73-2.71-7.89,0-15.77-.17-23.64-.26l.3-.47c6.13-1.28,12.32-.55,18.47-.56,27.82,0,55.64.09,83.45.19,1.73,0,24.61.15,26.33.29"/><path class="cls-10" d="M937.9,662.45c7.27-.07,45.18-.26,52.44-.32l16.67,0c3.84,3.9,5,9.33,8.13,13.72,5.53,7.86,13.2,13.2,20.62,18.89-11.5,0-115.35-.4-126.86-.32"/><path class="cls-18" d="M941.55,662.34c-1.21,1.17-3.18,1-4.08,2.94-5.46,11.61-13.89,20.64-24.54,27.7-.39.26-.42,1-.62,1.58-5.21-.4-9.5,2.85-14.46,3.63-11.71,1.83-23.46.72-35.19,1,.77-1.12,2-.85,3.11-1.1,19.91-4.6,34-16,41-35.48l11.45-.74,16.4.17Z"/><path class="cls-18" d="M1249.19,699.18c4.5-1.44,9.13-2.56,13.47-4.38,13.42-5.65,23-15.33,29.25-28.46l31.37,0a61.2,61.2,0,0,1-20.22,23.85c-1.52,1.05-3.55,1.79-3.13,4.29-9.62,2.43-19.07,5.55-29.28,4.86C1263.52,698.83,1256.34,699.19,1249.19,699.18Z"/><path class="cls-4" d="M779.65,662.53l-.3.47c-25.42.83-46,11-61.12,31.65-7.79,1.69-15.57,1.24-23.35-.07,13.2-7.44,23.26-17.69,28.67-32.09C742.25,661.92,761,661.89,779.65,662.53Z"/><path class="cls-15" d="M874.09,679.54l0,0"/><path class="cls-8" d="M490.84,659.93c1.52-3.11,4.24-4.72,7.32-5.9,2.12-1.49,4.19-3.08,6.79-3.71l1.65,4a4.21,4.21,0,0,0,2,3.36,2.54,2.54,0,0,0,2,2.15l.12.13c.13.43.26.86.4,1.3q3.17,12.3,6.34,24.6a19.58,19.58,0,0,1-9.74,3Z"/><path class="cls-8" d="M576.76,662.36l2.51-.08c2.48,5.53,8.3,8.69,10.34,14.53-5.86,6.07-12.94,11-17.35,18.42a27.57,27.57,0,0,1-13.82-.67Z"/><path class="cls-8" d="M476.05,676.92c2.53-6.28,6.17-11.62,12.5-14.67q8.22,14.47,16.43,29c-2,6.8-7.12,3.68-11.3,3.54Z"/><path class="cls-8" d="M570.76,661.74l2.32.59c-4.66,8.11-9.43,16.17-13.93,24.37-1.5,2.75-4.22,5-3.9,8.63-3.26.09-6.64,1.49-9.67-.9l8.3-31.88-.21-.46Z"/><path class="cls-4" d="M589.61,676.81c-2-5.84-7.86-9-10.34-14.53,3.85-.09,13.79.25,17.63.17,4.78,4.81,5.41,10.93,10,16,5.36,5.9,15.75,14.57,23,18-1.89,2-14.22-1.26-16.72-1.42-5.47-.35-10.95-.35-16.43-.48-1-5.31-2.46-10.45-5.64-14.94A3.29,3.29,0,0,0,589.61,676.81Z"/><path class="cls-8" d="M537.78,661.39l1.8,0c3.06,1.43,6.18.92,9.31.26l1.56,1-8.25,32.18c-3,2-5.5.79-7.89-1.19l-.09-31,2.35-.81Z"/><path class="cls-8" d="M529,661.7l2.36.73q-.09,14.33-.17,28.65L521,686.42l-6.27-23.27C519.28,660.75,524.32,663.19,529,661.7Z"/><path class="cls-10" d="M226.74,694.61a2.76,2.76,0,0,1-.06-.57c.57-6.68.62-13-10.14-13.17a17.8,17.8,0,0,1,2.19-1.21c2.54-.54,5.61,3.42,7.62-.53,2.19-4.32-.19-13.66-3.53-15.49l-5.6-3c3.87-1.32,5.85,2.52,9.09,1.81,1.26-10.14-1.33-20.53.77-30.69l1.5,0c0,3.68-.37,7.43.15,11,.28,2-2.74,5.85,2.45,6,.08,0,.39,1.13.18,1.4-5.75,7.09-1.28,15.21-3,22.81,4.24.46,6.06-4.15,9.83-3.5-.05.31,0,.59-.1.62-12.15,4.83-10,15-9.18,24.63Z"/><path class="cls-8" d="M591.11,679.61c3.18,4.49,4.63,9.63,5.64,14.94a34.68,34.68,0,0,1-20.13-.11Z"/><path class="cls-8" d="M468.66,694.46c.28-5.6,2.76-10.33,5.88-14.8l13,13.53C481.57,697.85,475.09,695.79,468.66,694.46Z"/><path class="cls-8" d="M181.17,698c-.08-6.74,3.86-10.79,9.25-13.88l8.22,5.53q.57,2.94,1.16,5.88C193.44,695.26,187.45,697.72,181.17,698Z"/><path class="cls-11" d="M555.25,695.33c-.32-3.6,2.4-5.88,3.9-8.63,4.5-8.2,9.27-16.26,13.93-24.37l1.49-.6,2.19.63-18.32,32.2Z"/><path class="cls-11" d="M542.2,694.75l8.25-32.18a3.16,3.16,0,0,1,3.43,0l-8.3,31.88Z"/><path class="cls-11" d="M505,691.2q-8.21-14.48-16.43-29c.05-1.48.62-2.44,2.29-2.32l16.84,29A3,3,0,0,1,505,691.2Z"/><path class="cls-11" d="M514.74,663.15,521,686.42a4.68,4.68,0,0,1-3.6-.52l-6.33-24.6C512.83,660.86,514,661.65,514.74,663.15Z"/><path class="cls-11" d="M487.59,693.19l-13-13.53a2.61,2.61,0,0,1,1.51-2.74l17.63,17.82A6.4,6.4,0,0,1,487.59,693.19Z"/><path class="cls-11" d="M591.11,679.61l-14.49,14.83-4.36.79c4.41-7.43,11.49-12.35,17.35-18.42A3.29,3.29,0,0,1,591.11,679.61Z"/><path class="cls-4" d="M199.8,695.54q-.59-2.94-1.16-5.88l10.08,5.1C205.87,696.52,202.78,695.44,199.8,695.54Z"/><path class="cls-1" d="M1030.68,217.48c-18.15.09-36.34,1-54.44.05-17.35-.87-28.8-14.23-28.9-31.64,0-6.34-.79-12.75.73-19,1.67,0,2.8-1,4-2,14.55-12.48,38.1-13.78,53.88-4.43,16.22,9.62,24.29,23.51,25.82,41.63C1032.21,207.1,1031.09,212.32,1030.68,217.48Z"/><path class="cls-1" d="M1285.44,189.74c17,.12,31.16,14.36,30.86,31.13-.28,15.77-14.56,30.15-30.13,30.34a31.32,31.32,0,0,1-31.48-31.07A30.72,30.72,0,0,1,1285.44,189.74Zm21.84,30.49a21.68,21.68,0,0,0-21.44-21.94,22,22,0,1,0-.41,43.94C1298,242.19,1307.25,232.84,1307.28,220.23Z"/><path class="cls-12" d="M373.87,225.06c-3.83,6.73-10.2,9.24-17.28,8.65-7.54-.62-13.78-4.25-16.56-12-.34-5.12,1.23-10.35-.86-15.37,5.88-14.1,24.45-18.32,35-4.73a8.27,8.27,0,0,1,.86,2.09c-.2,2.23.18,4.66-2.19,6.12-.39-.66-.83-1.3-1.15-2-3.45-7.3-10-10.57-17.42-8.65-6.76,1.75-11.67,8.22-11.3,14.89a15,15,0,0,0,13.47,14.26c7.58.75,13.81-3.62,16-11.21.32-1.09.69-2.17,1-3.25C374.33,217.56,375.32,221.27,373.87,225.06Z"/><path class="cls-1" d="M465.41,208.5c-.1-2.8,1.43-3.54,4-3.52q13,.15,26,0c2.68,0,4,1,4,3.6C488.06,208.88,476.74,209.13,465.41,208.5Z"/><path class="cls-1" d="M420.06,208.57c-.05-2.72,1.33-3.62,4-3.59q13.05.17,26.09,0c2.74,0,3.93,1.05,3.87,3.7Z"/><path class="cls-1" d="M382,205c7.41,0,14.82.09,22.22,0,2.59,0,4.61.29,4.41,3.55-7.31.07-14.63.09-22,.25C383.93,208.84,382.28,207.86,382,205Z"/><path class="cls-11" d="M372.86,209.79c2.37-1.46,2-3.89,2.19-6.12,4.76,7.46,4.36,14.7-1.18,21.39,1.45-3.79.46-7.5-.35-11.21l.08-.21c-.08-.51-.16-1-.23-1.51Z"/><path class="cls-11" d="M339.17,206.31c2.09,5,.52,10.25.86,15.37C336.89,216.72,337.28,211.55,339.17,206.31Z"/><path class="cls-9" d="M126.54,578.59l-4.59.21c.69-4.83-1.41-6.74-6.18-6a16.19,16.19,0,0,1-3.48,0c-1.31-.08-3,.06-2.79-2,.16-1.51,1.58-1.42,2.72-1.49a9.31,9.31,0,0,0,2.31-.06c2.4-.78,7,2,6.89-2.41-.14-4-4.67-1.5-7.18-2.16a16.11,16.11,0,0,0-2.88-.11c-1-.08-2-.57-1.93-1.71s1-1.61,2-1.64c2.51-.07,5-.09,7.54-.08,1.9,0,2.85-.86,2.86-2.79s-.75-2.92-2.71-2.93c-2.32,0-4.64,0-7-.06-1.16,0-2.56,0-2.67-1.54-.15-2,1.55-1.86,2.85-1.9,2.32-.09,4.64,0,7-.09,1.61,0,2.54-.81,2.41-2.53-.11-1.43-1.08-1.93-2.36-2a20,20,0,0,1-3.47-.1c-2.17-.52-6.1,1.69-6.15-1.86,0-2.76,3.78-1.19,5.87-1.57a19.11,19.11,0,0,1,3.47-.06c2,0,2.77-1,2.77-2.89S120.93,538,119,538c-2.12,0-4.25,0-6.38,0-1.3,0-3.06.22-3.15-1.64s1.66-1.77,3-1.81c2.13-.06,4.25,0,6.38,0,1.44,0,2.76-.28,2.86-2.09.12-2.19-1.38-2.48-3-2.5-2.32,0-4.64,0-7-.08-1.22,0-2.39-.38-2.2-2,.15-1.2,1.2-1.39,2.18-1.42,1.94-.06,3.87,0,5.8,0,2.15,0,4.46.24,4.36-3.06-.08-2.92-2.16-2.69-4.1-2.72s-3.87,0-5.8,0c-1.2,0-2.52-.23-2.48-1.74s1.37-1.65,2.56-1.68c2.32,0,4.64,0,7-.06,1.5,0,2.7-.43,2.74-2.23s-1.08-2.32-2.61-2.34c-2.12,0-4.25,0-6.38-.07-1.47-.05-3.43.28-3.3-2.09.12-1.91,1.7-2.4,3.35-2.46,1.93-.07,3.87,0,5.8-.06,1.64,0,3.22-.22,3.13-2.42s-1.79-2.17-3.35-2.2c-2.32,0-4.64,0-7-.08-1,0-2-.54-2-1.67s.9-1.65,1.95-1.68q3.77-.12,7.54-.09c2.3,0,3-1.21,2.91-3.3-.15-2.49-1.65-2.1-3.25-1.57a2.39,2.39,0,0,1-1.14.17c-2.77-.49-7.58,1.73-7.71-2.42s4.57-1.39,7-2.11c1.8-.53,4.89,1,4.85-2.38s-3.09-1.84-4.92-2.3c-2.41-.61-6.86,1.59-6.9-1.66-.05-3.44,4.37-1.2,6.75-1.79,2-.49,5.12,1.07,5.24-2.72.14-4.25-3.25-2.63-5.43-3.11s-6.54,1.61-6.53-2c0-2.75,4.18-1.12,6.49-1.45s5.11.77,5.84-3c.38-2,3.11-2.15,3.49-.88,1.66,5.52,6,3.46,9.45,3.87,1.42.16,3.68-.58,3.77,1.55.1,2.73-2.52,1.43-4,2-2.77,1-8.27-2.76-8,3.11.19,4.82,5.21,1.83,8,2.61,1.49.42,4.15-.74,4,1.9-.16,2.43-2.77,1.18-4.28,1.64-2.61.81-7.56-2.21-7.53,2.32s5,1.48,7.59,2.26c1.52.44,4-.76,4.29,1.67s-2.42,2.17-3.89,2.58a25.89,25.89,0,0,1-5.74.44c-1.54.07-2.64.6-2.59,2.37s1.26,2.2,2.75,2.21c2.51,0,5,0,7.54.1,1,0,2,.49,2,1.64s-.86,1.66-1.91,1.71a44.52,44.52,0,0,0-4.63.12c-2,.34-5.52-1.41-5.58,2.12-.07,4.1,3.72,2,5.85,2.44a25.81,25.81,0,0,0,4,.11c1.28,0,2.27.54,2.38,2,.14,1.72-.82,2.48-2.42,2.52-2.31.05-4.63,0-7,.07-1.68,0-3.18.33-3,2.51.1,1.81,1.42,2.07,2.86,2.09,2.32,0,4.64,0,7,.07,1.2,0,2.5.25,2.43,1.78s-1.42,1.61-2.6,1.64q-3.48.06-7,0c-1.91,0-2.82.92-2.82,2.83s.8,2.89,2.75,2.89,3.87-.05,5.79.07c1.43.08,3.69-.58,3.75,1.56.06,2.69-2.47,1.73-4,1.86-1.92.17-3.86,0-5.8.1-1.27,0-2.25.55-2.36,2-.14,1.7.78,2.5,2.39,2.53,2.32.06,4.64,0,7,.09,1.3,0,3-.12,2.87,1.9-.11,1.51-1.52,1.51-2.67,1.53-2.32,0-4.64.06-7,.07-2,0-2.74,1.06-2.72,2.92s1,2.8,2.86,2.79q3.48,0,7,.06c1.19,0,2.52.18,2.56,1.68s-1.26,1.73-2.46,1.75c-1.93,0-3.87,0-5.8.06-1.64.06-3.86-.48-3.95,2.13-.11,3.07,2.4,2.37,4.2,2.47s3.86,0,5.79.07c1.23,0,2.39.39,2.19,2-.16,1.2-1.21,1.39-2.19,1.42-1.73.06-3.48,0-5.21.08-2.17.11-5-.76-4.93,3,.09,3.38,2.68,2.6,4.67,2.7s3.87,0,5.8.1c1.05,0,2,.55,1.92,1.7s-1,1.61-2,1.64c-2.51.07-5,.06-7.54.1-1.49,0-2.7.42-2.75,2.21s1.07,2.33,2.6,2.35c2.13,0,4.26,0,6.38.07,1.3,0,3.06-.29,3.27,1.53s-1.52,1.78-2.84,2c-1.52.2-3.2,1.06-4.5.66C126.33,571.85,126.26,575,126.54,578.59Z"/><path class="cls-9" d="M139.66,418.63c-3.84,1.77-6.54,1.06-9.11,1.19-2.14.11-3.22.89-3.13,3.14.08,2.05,1.26,2.63,3,2.63a34.33,34.33,0,0,1,4.06.05c1.55.17,4.17-.79,4,1.84-.15,2.43-2.71,1.38-4.29,1.61-.75.11-1.55,0-2.31,0-1.77.19-4.36-.71-4.34,2.33s2.63,2.1,4.39,2.28c1,.1,1.93,0,2.9,0,1.84.05,3.8.39,3.76,2.63,0,2.7-2.5,1.54-4,2-2.39.75-7-2.08-6.85,2.5.09,3.75,4.35,1.5,6.7,2.09,1.51.38,4.16-.73,4,1.87-.12,2.44-2.69,1.45-4.27,1.61a34.32,34.32,0,0,1-4.06.06c-1.94,0-2.79,1-2.79,2.86s.88,2.75,2.8,2.88c2.65.19,5.4-.58,8,.62,0,2.34-1.78,1.6-2.93,1.71-3.5.34-8.1-1.57-8.39,4.74-.05,1.18-1.86,1.18-3,.84-1.33-.4-1.76-1-.81-2.5,1.61-2.49-.21-2.9-2.2-3-3-.22-6.07.53-9.83-.89,3.12-2.33,6-1.19,8.65-1.46,2.09-.21,4.06-.53,3.9-3.15-.13-2.21-2-2.6-3.82-2.62-2.13,0-4.26,0-6.39-.09-1,0-1.95-.55-1.94-1.69s.94-1.63,2-1.66c2.32-.08,4.64,0,7-.12a2.87,2.87,0,0,0,2.94-3c0-2-1.83-1.53-3.09-1.59-2.12-.1-4.26,0-6.37-.17a2.17,2.17,0,0,1-2.24-2.2,2.22,2.22,0,0,1,2.31-2.13c2.31-.17,4.64-.09,6.95-.25a2.56,2.56,0,0,0,2.68-2.51c.07-2-1.46-2-2.83-2-2.32-.05-4.64,0-7-.08-1.2,0-2.43-.3-2.28-1.9.11-1.19,1.13-1.46,2.13-1.48,2.32-.07,4.65,0,7-.13,1.75-.07,3.06-1,3.06-2.81s-1.29-2.73-3-2.82c-1.93-.1-3.87,0-5.8-.1-1.24-.06-3.17.42-3-1.59.1-1.53,1.78-1.82,3.2-1.84,2.13,0,4.26,0,6.38-.09,1.28,0,2.24-.59,2.34-2,.12-1.72-.83-2.48-2.43-2.52-2.51-.06-5,0-7.54-.11-1.22,0-2.39-.37-2.2-1.95.14-1.22,1.2-1.4,2.17-1.43,2.32-.07,4.65,0,7-.14a3,3,0,0,0,3.07-3.44c-.1-2.2-1.75-2.21-3.34-2.23-2.32,0-4.64,0-7-.08-1,0-2-.54-2-1.68s.91-1.64,2-1.68c1.93-.07,3.87,0,5.8-.08,1.57,0,3.26,0,3.35-2.21s-1.53-2.38-3.16-2.41c-1.93,0-3.87,0-5.8-.06-1,0-2-.33-2.11-1.51-.13-1.59,1.09-1.85,2.29-1.89,2.13-.07,4.26,0,6.39-.09,1.63-.05,3.32-.45,3.23-2.47a3.14,3.14,0,0,0-3.35-3.24c-2.31,0-4.63-.06-7-.16a1.53,1.53,0,0,1-1.61-1.35,1.56,1.56,0,0,1,1.65-1.88c2.12-.11,4.25-.1,6.37-.14,1.67,0,3.18-.33,3-2.52-.11-1.81-1.45-2.06-2.88-2.09-1.74,0-3.49,0-5.23-.05-1.31-.05-3.06.13-2.94-1.82s1.88-1.58,3.18-1.62c1.73-.07,3.48,0,5.22-.05,2.21,0,3.82-.87,3.8-3.35s-2-2.35-3.76-2.39c-1.55,0-3.1.07-4.64,0s-3.7.56-3.75-1.57c0-2.68,2.48-1.69,4-1.86s3.09,0,4.64-.09c1.28-.05,2.24-.57,2.35-2,.13-1.72-.82-2.47-2.42-2.52-1.94-.06-3.87,0-5.8-.12-1.23-.06-2.41-.52-2.65-1.8-.28-1.49,1.11-2,2.15-2.28,3.81-1,8.73.78,10.85-4.5.19-.46,1.78-.08,1.87.67.67,5.37,4.22,3.85,7.52,3.42,1.91-.26,4.37-.18,4.52,2.37.17,3.18-2.65,1.88-4.32,2.17-.75.13-1.55-.05-2.32,0-1.76.19-4.36-.73-4.37,2.3s2.59,2.1,4.34,2.33a3.7,3.7,0,0,1,.58,0c2,.53,5.78-1.35,5.87,1.64.09,3.18-3.64,1.36-5.66,1.8-1.3.29-2.76,0-4,.38-1.62.54-1.43,2.16-1.21,3.48.33,2.11,2.16,1.64,3.61,2,2.5.63,7.06-1.86,7.1,1.95,0,2.92-4.55,1-7,1.46-1.68.31-3.79-.12-3.64,2.51s2.36,1.84,4,2.21c2.39.56,6.82-1.67,6.79,1.76s-4.46,1.23-6.9,1.63c-2,.32-4,0-4,2.9s1.87,2.71,3.9,3c2.46.36,7-1.55,6.95,1.52-.09,3.67-4.68,1.26-7.21,1.87-1.46.35-3.32-.11-3.49,2.1-.19,2.62,1.84,2.25,3.54,2.64,2.52.57,7.09-1.86,7.14,1.9,0,3-4.51,1.13-7,1.47-2.05.29-3.9.26-3.84,3.06s2.13,2.5,4.05,2.84c2.43.44,6.85-1.66,6.86,1.68s-4.43,1.35-6.86,1.66-4.37.32-4,3.43c.36,3.29,2.38,1.94,4.26,1.63C134,416.3,136.13,417.4,139.66,418.63Z"/><path class="cls-1" d="M1706.62,542.78c-.9,1.46-1.63,3.07-3.4,3.73l-68.34-.4c-1.74,0-3.48,0-5.22,0s-3.25-.15-3.14-2.38,1.84-2.09,3.38-2.15c.77,0,1.55,0,2.32,0q34.18,0,68.38,0C1702.65,541.59,1704.91,540.94,1706.62,542.78Z"/><path class="cls-1" d="M1723.6,528.44c-2,1.32-4,2.69-6.41,3-7.31-1.07-14.66-.42-22-.46-21.08-.11-42.16,0-63.24-.09-1.81,0-5.08,1.36-5.12-1.78,0-2.62,3.06-1.6,4.77-1.6q43.8-.1,87.61,0C1720.72,527.54,1722.35,527.13,1723.6,528.44Z"/><path class="cls-1" d="M1696.05,564.69c-.07,1.15-.14,2.3-.2,3.45-1.9,1.22-4,1.12-6.16,1.12l-57.88,0a33.44,33.44,0,0,1-3.47-.13,2,2,0,0,1-1.84-2.42,1.84,1.84,0,0,1,1.84-1.85c1.53-.1,3.08-.13,4.62-.13Z"/><path class="cls-7" d="M118.2,639.08c-7.31-.42-14.5,1.8-21.83.92,0-4.43-.29-8.88.06-13.28.42-5.28.07-9.87-5.93-11.77,7.49,0,15,.41,22.48-.09,5.31-.36,8,1.33,8.23,6.63-3.28,0-6.56,0-9.83.12-1,0-2,.55-1.95,1.67s.92,1.67,2,1.66c3.65,0,7.32.49,10.94-.42l0,.2c-.89,2.53.54,6.43-4.64,6.21-3-.12-8.79-1.35-8.6,1.12.34,4.26,5.6,1.49,8.67,2.2,1.57.36,3.71-.42,3.94,2.17S119.84,638.8,118.2,639.08Z"/><path class="cls-7" d="M173.21,666.59c-9.26,5.4-9.57,5.65-15.58-1.93A59.52,59.52,0,0,0,137,647.49c-1.77-.87-3.93-1.77-4.87-3.91,3.23-.37,8,1.6,7.13-4.84,8.82,2,16.34,7.76,25.45,9,2,.26,2.24,1.8,2.53,3.35C168.27,656.61,170.71,661.62,173.21,666.59Z"/><path class="cls-7" d="M188.23,629.05q-.06,17.64-.14,35.26c-2.38.23-4.88-.1-7,1.39-8.92-9.94-8.87-22.09-8.52-34.32.06-2.5,1.7-2.66,3.55-2.61Z"/><path class="cls-4" d="M181.07,665.7c2.14-1.49,4.64-1.16,7-1.39,7.93-.06,14.91,3.23,22,6.16a3.14,3.14,0,0,0,3.41,2.11l0,16.85C200.61,684.33,189.18,677.27,181.07,665.7Z"/><path class="cls-7" d="M140.46,615c3.21-.65,4.47.42,5.19,3.29,2.22,9,8.55,14.29,16.75,17.74,1.67.71,3.84.69,3.86,3.47,0,3.15.39,5.59-4.45,4.24-12.56-3.49-21.88-10-25.06-23.45C135.83,616.43,136,614,140.46,615Z"/><path class="cls-9" d="M139.26,638.74c.91,6.44-3.9,4.47-7.13,4.84a82.63,82.63,0,0,1-8.93-1.43c-1.86-.48-4.37-.41-5-3.08,1.63-.27,3.75,0,3.51-2.65s-2.37-1.81-3.94-2.17c-3.07-.71-8.33,2.06-8.67-2.2-.19-2.47,5.63-1.24,8.6-1.12,5.18.22,3.75-3.68,4.64-6.21C126.85,630.76,132.84,635,139.26,638.74Z"/><path class="cls-9" d="M137.92,633.35A21,21,0,0,1,124.64,620c-.51-1.39-3.13-4.4.59-4.95,2.72-.41,7.27-2.2,7.85,2.86.64,5.5,3.15,10.18,5.14,15.12Z"/><path class="cls-9" d="M122.33,624.52c-3.62.91-7.29.41-10.94.42-1,0-2-.52-2-1.66s.9-1.65,1.95-1.67c3.27-.08,6.55-.09,9.83-.12C121.58,622.5,122,623.51,122.33,624.52Z"/><path class="cls-15" d="M1323.28,666.31l-31.37,0a14.33,14.33,0,0,0-3.27-.76q-47,0-94.05,0l-54.51.08c-1.15-.09-2.29-.25-3.44-.27-12.68-.14-12.68-.13-12.67-12.55a33.52,33.52,0,0,0-.06-5.76c-1.06-5.93,1.57-10.6,4.74-15.15,2,1.53,4.43,1.12,6.72,1.13,18.77,0,37.56-.64,56.3.13,49.29,2,98.59.28,147.89.92,2.31,0,4.63-.11,7-.18,4,1.24,5,4,4.89,8-.22,5.36,0,10.74-.07,16.12,0,2.44.24,5.1-2.33,6.7a1.65,1.65,0,0,0-2.44,1C1338.8,665.93,1331,665.09,1323.28,666.31Zm-14.47-27.95c-.5-2.72-2.69-1.64-4.15-1.65q-27.08-.12-54.15,0c-1.23,0-2.78-.58-3.41,1.21-2.34,5.36-.47,11-1.12,16.45-.42,3.49,1.29,4.2,4.39,4.19q27.26-.16,54.52,0c2.93,0,4.22-.81,4.09-3.93C1308.77,649.18,1308.85,643.77,1308.81,638.36Z"/><path class="cls-1" d="M1345.62,599.66c-6.3,1.52-12.72.91-19,.6-4.79-.24-6.59-3.85-6.18-10.57.27-4.52,2.53-7.28,7.21-7.37,5.6-.09,11.21.06,16.82.11C1350.22,587.55,1350.61,593.08,1345.62,599.66Z"/><path class="cls-1" d="M1220.6,599.66c-8.15,1.52-16.44.91-24.62.6-6.2-.24-8.53-3.85-8-10.57.35-4.52,3.27-7.28,9.32-7.37,7.25-.09,14.5.06,21.75.11C1226.55,587.55,1227.05,593.08,1220.6,599.66Z"/><path class="cls-15" d="M1346.56,665.76a1.65,1.65,0,0,1,2.44-1A2.44,2.44,0,0,1,1346.56,665.76Z"/><path class="cls-10" d="M1600.91,678.52c1.69-2.41,4.72-2.14,7-3.41,2-1.11,2.06.77,2.39,2,1.16,4.23,2.29,8.47,3.43,12.71a21.82,21.82,0,0,1,.77,8.5c-.19,2.24-1.94,2.16-3.44,1.9-2.81-.48-.6-1.56-.35-2.64a8.47,8.47,0,0,0-2.56-8.27C1604.49,686.34,1602.9,682.39,1600.91,678.52Z"/><path class="cls-10" d="M1615.05,686.18c-.78-2.53-1.38-5.15-2.4-7.58-1.93-4.61-.07-6.23,4.4-6.11Q1616,679.33,1615.05,686.18Z"/><path class="cls-19" d="M530.27,625c-3.19,0-6.39-.11-9.58,0-2.86.12-4.54-1.07-4.94-3.47a3.82,3.82,0,0,1,3.91-4.45c7.44-.3,14.9-.26,22.34,0a3.83,3.83,0,0,1,3.89,3.94c-.18,2.4-2.16,3.77-4.76,3.88-3.61.16-7.24,0-10.86,0Z"/><path class="cls-19" d="M524.9,332c-3.19,0-6.39-.11-9.58,0-2.86.12-4.54-1.07-4.94-3.47a3.82,3.82,0,0,1,3.91-4.45c7.44-.3,14.9-.26,22.34,0a3.83,3.83,0,0,1,3.89,3.94c-.18,2.4-2.16,3.77-4.76,3.88-3.61.16-7.24,0-10.86,0Z"/><path class="cls-19" d="M890.9,336c-3.19,0-6.39-.11-9.58,0-2.86.12-4.54-1.07-4.94-3.47a3.82,3.82,0,0,1,3.91-4.45c7.44-.3,14.9-.26,22.34,0a3.83,3.83,0,0,1,3.89,3.94c-.18,2.4-2.16,3.77-4.76,3.88-3.61.16-7.24,0-10.86,0Z"/><path class="cls-2" d="M311.59,697.47c-28.08,0-88.69,0-88.69,0v-462h90"/><path class="cls-6" d="M702.25,173.73c-4.9-14.78-6.62-29.74-2.38-45,8-28.92,27.57-45.67,56.35-52,4.16-.92,4.75-2.47,4.73-6,0-4.35-2.84-3.73-5.54-3.82-6.89-.22-10.7-3.67-10.61-9.53.07-5.1,4.5-8.61,11-8.61,8.9,0,17.79,0,26.69.06,6.16.06,9.77,3.36,9.87,8.83.1,5.23-3.77,9-9.77,9.23-3.34.13-6.59-.5-6.38,4.79.14,3.46,1.3,4.73,4.56,5.18a57,57,0,0,1,18.7,5.91c3.45,1.81,5.43,1.32,7.7-1.68,4-5.32,6.07-5.44,11.41-1.45S825,86.46,821,91c-3.59,4.1-1.32,6.29,1.14,9.16,17.65,20.51,21.84,44,13.8,69.35-15.1,47.63-75.89,64.15-113.51,31.2-1-.89-2.1-1.71-3.15-2.56-1.41-.72-1.41-1.72-2-2l-3.63-3.79c-2.76-3.92-6.76-7.92-8.82-13.05l0,0C703.9,177.45,702.9,175.45,702.25,173.73Zm87.08,18.56c24.16-9.72,37-40.74,24.75-66.21-4.8-15.8-27.6-31.32-45.71-29.09a39.09,39.09,0,0,0-14.13,1.87,49.69,49.69,0,0,0-34.54,58.48c1.06,4.82,3.1,9.42,4.69,14.12l.51,1,1,4c2,3,2,4,4.37,7a39.07,39.07,0,0,0,10.32,10.42c4.8,3.52,11.31,2.57,16,2.85C756.64,196.73,780.76,196.13,789.33,192.29Z"/><path class="cls-11" d="M638.54,186.4l.44.59-.59-.44Z"/><path class="cls-2" d="M1055.26,420.91h0"/><path class="cls-2" d="M1040.9,417.45c6,6-6-5,22,19-5.36,7-11.54,23.48-16,31-7,11.8-14.26,25-21,37-4.64,8.28-11.22,18.76-14,28h-68c7.39-14.29,18.46-32.63,26.53-46.52,12.47-21.45,23.27-43.8,35.81-65.19,1.62-2.76,1.66-5.29,3.66-9.29.38-.05,6.63-7.94,7-8,1.49-2.44,14,2,19,10"/><path class="cls-2" d="M1174.79,403.82q12.7-.22,25.41-.43a7.16,7.16,0,0,1,5.25,2.1c4.75,4.77,9.36,9.67,12,16a18.13,18.13,0,0,0-5.86,7c-14.25,26.79-28.3,53.68-42.74,80.36-3.69,6.81-5.82,16.19-17,14.61-7.45,2.09-13.82.53-18.28-6.05-4.2-6.19-8.19-12.54-10-20,4.71-3.29,6.22-8.9,8.78-13.45,9.76-17.34,18.92-35,28.59-52.41C1166,422.55,1171.67,413.81,1174.79,403.82Z"/><path class="cls-17" d="M1151.85,523.44c11.19,1.58,13.32-7.8,17-14.61,14.44-26.68,28.49-53.57,42.74-80.36a18.13,18.13,0,0,1,5.86-7c3.84,4.77,8.17,9.28,8.63,15.89-4.51,14.25-13.39,26.29-20,39.48-7.11,14.19-15.13,27.91-22.68,41.87-.6,1.09-1.57,2.73-.43,3.64.85.69,2.56.47,3.87.4,2-.11,3.1-1.53,3.93-3.08,8.6-16.13,16.93-32.42,25.84-48.38,4.72-8.45,8.26-17.62,14.51-25.2,5.67,8.09,8.33,17.61,12.39,26.45,6.75,14.68,13.09,29.54,19.63,44.31,3.09,7,3.13,7-4.74,7q-50.12,0-100.23,0C1156.07,523.81,1154,523.57,1151.85,523.44Z"/><path class="cls-17" d="M1107.73,460.63c-5-7.46-7.37-16.21-11.44-24.16-4.73-9.25-9.57-18.41-15.2-27.15-1-1.56-3-3.14-2-5s3.53-.83,5.36-.83c18.11.09,36.22-.63,54.32.37-1,2.49-1.58,5.18-2.92,7.45-6.41,10.84-12.1,22.05-18,33.15C1114.85,450,1112.78,456.28,1107.73,460.63Z"/><path class="cls-17" d="M1174.79,403.82c-3.12,10-8.83,18.73-13.85,27.75-9.67,17.4-18.83,35.07-28.59,52.41-2.56,4.55-4.07,10.16-8.78,13.45a69.51,69.51,0,0,1-7.91-17.63c.82-2.36,1.33-4.89,2.5-7.07,8.54-15.88,17.23-31.67,25.84-47.52,3.83-7.07,8.43-13.76,11-21.45A93.71,93.71,0,0,1,1174.79,403.82Z"/><path class="cls-15" d="M1067.94,443.9c3.45.05,6.9,0,10.35.15,6,.25,8.24,2.58,8.3,8.49q.18,18.52.32,37.07c0,3.57.3,7.21-2.87,9.86l-1,.52-4.73.25c-.1-3.05-.06-6.12-.35-9.15-.17-1.8-.28-4.17-3-4-2.45.15-2.15,2.28-2.22,3.94-.1,2.48-.09,5-.12,7.44-7.77.28-9.16-.9-9.24-8.64-.11-9,1.13-17.86.76-26.92-.25-6.14-1.58-13.31,3.47-18.83Z"/><path class="cls-2" d="M1155.05,403.76c-2.62,7.69-7.22,14.38-11,21.45-8.61,15.85-17.3,31.64-25.84,47.52-1.17,2.18-1.68,4.71-2.5,7.07-3.15-6.18-6.23-12.39-7.92-19.18,5-4.34,7.11-10.6,10.1-16.19,5.93-11.1,11.62-22.31,18-33.15,1.34-2.27,2-5,2.92-7.45A71.31,71.31,0,0,1,1155.05,403.76Z"/><path class="cls-15" d="M950.69,638.89l.06.07-1-2.3,36.47.06c2.11,0,4.27.23,6-1.41q.06,13.41.11,26.82l-21.79.18-1.3-.09v-.12c-.16-1.38-.72-2.36-2.31-2.32l.07.08c0-1.63-.73-2.46-2.39-2.4l.06.07"/><path class="cls-9" d="M943.82,409.05c0,36.3,0,72.61-.09,108.91,0,3.72,1,5,4.9,5q60.87-.22,121.72-.19c3.28-.1,4-2.41,3.28-4.79-1.61-5.3-.57-10.7-1.19-16,0-.53,0-1.05,0-1.58s.07-1.29.11-1.93c0-2.48,0-5,.12-7.44.07-1.66-.23-3.79,2.22-3.94,2.73-.16,2.84,2.21,3,4,.29,3,.25,6.1.35,9.14-1.88,4.67-1.45,9.53-.48,14.18,1.76,8.47,2,8.42,10.66,8.37,3.09,0,6.18-.11,9.26,0,3.89.18,4.18-1.41,2.72-4.53-1.61-3.45-4.11-6.53-4.57-10.49,4.72,3.44,5.11,9.26,7.41,14,1.14,2.34-1.87,2.22-3.48,2.25-4.29.08-8.58,0-13.71,0,1.84,3,3.75,2.3,5.29,2.51,2,.28,4.08.68,3.95,3.24-.15,2.81-2.55,3.43-4.65,3.14-4.36-.6-9.2-1-11.91-5-2.48-3.68-5.72-3.94-9.53-3.94-39.84,0-79.68-.1-119.51.16-5.77,0-7.11-1.76-7.08-7.2.22-36,.16-71.9.07-107.86,0-3.76.35-6.41,5.08-6.39"/><path class="cls-2" d="M1231.13,446.14c-6.25,7.58-9.79,16.75-14.51,25.2-8.91,16-17.24,32.25-25.84,48.38-.83,1.55-2,3-3.93,3.08-1.31.07-3,.29-3.87-.4-1.14-.91-.17-2.55.43-3.64,7.55-14,15.57-27.68,22.68-41.87,6.61-13.19,15.49-25.23,20-39.48C1229.43,439.36,1230.16,442.82,1231.13,446.14Z"/><path class="cls-17" d="M1095.89,507.79c.46,4,3,7,4.57,10.49,1.46,3.12,1.17,4.71-2.72,4.53-3.08-.14-6.17,0-9.26,0-8.66.05-8.9.1-10.66-8.37-1-4.65-1.4-9.51.48-14.18L1083,500c.78.68,1,.27,1-.52,3.17-2.65,2.9-6.29,2.87-9.86C1092,494.63,1093.26,501.55,1095.89,507.79Z"/><path class="cls-15" d="M1235.9,589.45c-.58-4.1,1.94-5.89,5.92-5.87,23,.11,46,0,69,0,2.25,0,5.28-.52,5.45,2.72.21,3.79-3.13,2.6-5.16,2.61-18,.08-35.93,0-53.9.06-2.31,0-4.62.25-6.92.38l-3.28-.11a14.22,14.22,0,0,0-7.07,0C1238.78,589.21,1237,589.57,1235.9,589.45Z"/><path class="cls-15" d="M1236.9,592.45c19.52.1,42.24.2,61.76.47,3.07,0,18.34-2.49,18.24,2.53-.08,4-6.27,3-9,3-18.55.18-45.85-.21-64.41-.18-2.31,0-4.61.28-6.92.43C1236.36,595.85,1235.2,594.21,1236.9,592.45Z"/><path class="cls-15" d="M1235.9,602.45c19.07.09,50.95-.45,70-.36,2.12,0,4.24,0,6.36,0,2.32,0,5.37-.12,5.35,2.88,0,3.36-3.31,2.48-5.45,2.5-20.23.15-56,.86-76.28,1Z"/><path class="cls-15" d="M1258.23,451.22c.84-5.34,4-7.79,9.31-7s10.7-2.05,15.43,1.87l-12.16.12c-7.82,0-7.88.08-7.89,7.63,0,11,0,22-.05,33,0,1.86.68,3.89-.84,5.54-1.52-3.12-3.42-6.09-3.67-9.68q-.06-9.56-.11-19.13Q1258.24,457.42,1258.23,451.22Z"/><path class="cls-2" d="M1258.23,451.22q0,6.19,0,12.39l-8.37.26a51.22,51.22,0,0,1-5.46-12.68Z"/><path class="cls-11" d="M1249.88,463.87l8.37-.26q.06,9.57.11,19.13C1254.15,477.07,1252.05,470.45,1249.88,463.87Z"/><path class="cls-19" d="M1307.28,220.23c0,12.61-9.32,22-21.85,22a22,22,0,1,1,.41-43.94A21.68,21.68,0,0,1,1307.28,220.23Z"/><path class="cls-19" d="M373.6,213.64l-.08.21c-.35,1.08-.72,2.16-1,3.25-2.21,7.59-8.44,12-16,11.21A15,15,0,0,1,343,214.05c-.37-6.67,4.54-13.14,11.3-14.89,7.4-1.92,14,1.35,17.42,8.65.32.68.76,1.32,1.15,2l.51,2.34c-.08.17-.26.37-.22.51A7.33,7.33,0,0,0,373.6,213.64Z"/><path class="cls-2" d="M1308.81,638.36c0,5.41,0,10.82.17,16.22.13,3.12-1.16,3.94-4.09,3.93q-27.26-.13-54.52,0c-3.1,0-4.81-.7-4.39-4.19.65-5.46-1.22-11.09,1.11-16.45,2.11,0,4.23.07,6.34.08Z"/><path class="cls-15" d="M1308.81,638.36l-55.38-.39c-2.11,0-4.23-.05-6.34-.08.64-1.79,2.19-1.21,3.42-1.21q27.08,0,54.15,0C1306.12,636.72,1308.31,635.64,1308.81,638.36Z"/><path class="cls-17" d="M990.9,402.45c8.12,0,18.29-1.91,26,0,.19,3.53-3,8.53-4.66,11.29-12.54,21.39-23.34,43.74-35.81,65.19-8.07,13.89-13.14,31.23-20.53,45.52-8.79.11-14,2.62-14-6s-1.55-16.44,0-25c10.94-16.95,23.38-41.76,33.28-59.27,5.45-9.64,10.24-21.62,14.72-31.73C990.31,402.4,990.5,402.5,990.9,402.45Z"/><path class="cls-17" d="M1069.9,442.45c-3.13,2.52-9.34,6.77-9.31,10.67.09,12.48-.11,25-.21,37.45-5.88,9.74-12,19.34-15.89,30.14l-25.51,0c2.77-9.23,8-17.32,12.61-25.6,6.74-12,11.32-24.82,18.31-36.62,3.84-7.28,7.64-15,13-22,.42.13,2.4,3,3,3"/><path class="cls-7" d="M1018,521.67l25.51,0,9.36,0c5.82.69,11.78-1.11,17.5,1.09q-60.85.06-121.72.19c-3.85,0-4.91-1.29-4.9-5,.12-36.3.07-72.61.09-108.91,0-1.81-.65-4.09,2.27-4.49-2.16,13.43-.76,27-1.12,40.44-.05,1.69-.44,3.52,1.07,4.9q0,18.56,0,37.11c-1.56,8.57-1.07,17.22-1.07,25.84s.39,9,9.18,8.85Z"/><path class="cls-15" d="M1059.38,491.57c.1-12.48.3-25,.21-37.45,0-3.9.63-7.22,3.76-9.74l4.24-.31c-5,5.52-3.72,12.69-3.47,18.83.37,9.06-.87,18-.76,26.92.08,7.74,1.47,8.92,9.24,8.64,0,.64-.07,1.28-.11,1.92C1060.83,500.2,1060.42,499.92,1059.38,491.57Z"/><path class="cls-9" d="M1084,499.47c0,.79-.23,1.2-1,.52Z"/><path class="cls-2" d="M941.9,494.45c0-12.37,0-24.63,0-37,4.73-8.29,13.76-24,18.26-32.45,3.59-6.69,7.83-13.06,10.25-20.33.39-.06,1.1-2.17,1.49-2.22,8,0,13-.63,19,0-4.48,10.11-10.27,22.09-15.72,31.73C965.28,451.69,952.84,477.5,941.9,494.45Z"/><path class="cls-17" d="M971.9,402.45c-2.42,7.27-8.15,15.86-11.74,22.55-4.5,8.41-13.53,24.16-18.26,32.45,0-3-1-10.32-1-12,.37-13.48-1.16-29.57,1-43C950,402.48,963.8,402.41,971.9,402.45Z"/><path class="cls-17" d="M1070.35,522.78c-5.72-2.2-11.68-.4-17.5-1.09,1.32-3,2.76-5.89,3.94-8.92,2.79-7.17,6.3-13.18,15.65-10.8.62,5.32-.42,10.72,1.19,16C1074.36,520.37,1073.63,522.68,1070.35,522.78Z"/><path class="cls-2" d="M1072.44,502c-9.35-2.38-12.86,3.63-15.65,10.8-1.18,3-2.62,6-3.94,8.92l-9.36,0c3.85-10.8,10-20.4,15.89-30.14,1,8.35,1.45,8.63,13.11,8.81C1072.48,500.92,1072.46,501.44,1072.44,502Z"/><path class="cls-7" d="M307.9,314.45c4,1,112,1,112,1v382h-116Z"/><ellipse class="cls-15" cx="647.9" cy="636.95" rx="56" ry="63.5"/><ellipse class="cls-15" cx="1058.9" cy="636.95" rx="56" ry="63.5"/><ellipse class="cls-11" cx="644.9" cy="636.45" rx="33" ry="39"/><ellipse class="cls-11" cx="1061.9" cy="636.45" rx="33" ry="39"/><rect class="cls-14" x="973.9" y="523.45" width="95" height="23"/><rect class="cls-14" x="934.9" y="560.45" width="56" height="76"/><rect class="cls-14" x="941.9" y="523.45" width="75" height="47"/><rect class="cls-14" x="987.9" y="384.45" width="225" height="18" rx="6.22"/><ellipse class="cls-6" cx="767.51" cy="146.45" rx="64.39" ry="60"/><circle class="cls-10" cx="769.4" cy="146.95" r="54.5"/><path class="cls-2" d="M769.9,144.45h55a57.91,57.91,0,0,0-55-53.94Z"/><circle class="cls-6" cx="770.4" cy="143.95" r="11.5"/><rect class="cls-6" x="751.9" y="133.45" width="66" height="7" rx="3.5" transform="translate(12.69 333.2) rotate(-24.16)"/><rect class="cls-20" x="315.74" y="351.11" width="25.17" height="16.33" rx="8.17"/><rect class="cls-20" x="372.74" y="351.11" width="25.17" height="16.33" rx="8.17"/><rect class="cls-20" x="344.74" y="351.11" width="25.17" height="16.33" rx="8.17"/><rect class="cls-20" x="315.74" y="371.11" width="25.17" height="16.33" rx="8.17"/><rect class="cls-20" x="372.74" y="371.11" width="25.17" height="16.33" rx="8.17"/><rect class="cls-20" x="344.74" y="371.11" width="25.17" height="16.33" rx="8.17"/><rect class="cls-20" x="315.74" y="415.11" width="25.17" height="16.33" rx="8.17"/><rect class="cls-20" x="372.74" y="415.11" width="25.17" height="16.33" rx="8.17"/><rect class="cls-20" x="344.74" y="415.11" width="25.17" height="16.33" rx="8.17"/><rect class="cls-20" x="315.74" y="437.11" width="25.17" height="16.33" rx="8.17"/><rect class="cls-20" x="372.74" y="437.11" width="25.17" height="16.33" rx="8.17"/><rect class="cls-20" x="315.74" y="459.11" width="25.17" height="16.33" rx="8.17"/><rect class="cls-20" x="372.74" y="459.11" width="25.17" height="16.33" rx="8.17"/><rect class="cls-20" x="344.74" y="459.11" width="25.17" height="16.33" rx="8.17"/><rect class="cls-20" x="315.74" y="481.11" width="25.17" height="16.33" rx="8.17"/><rect class="cls-20" x="372.74" y="481.11" width="25.17" height="16.33" rx="8.17"/><rect class="cls-20" x="344.74" y="481.11" width="25.17" height="16.33" rx="8.17"/><rect class="cls-20" x="315.74" y="503.11" width="25.17" height="16.33" rx="8.17"/><rect class="cls-20" x="372.74" y="503.11" width="25.17" height="16.33" rx="8.17"/><rect class="cls-20" x="344.74" y="503.11" width="25.17" height="16.33" rx="8.17"/><rect class="cls-20" x="372.74" y="525.11" width="25.17" height="16.33" rx="8.17"/><rect class="cls-20" x="344.74" y="525.11" width="25.17" height="16.33" rx="8.17"/><rect class="cls-20" x="315.74" y="547.11" width="25.17" height="16.33" rx="8.17"/><rect class="cls-20" x="372.74" y="547.11" width="25.17" height="16.33" rx="8.17"/><rect class="cls-20" x="344.74" y="547.11" width="25.17" height="16.33" rx="8.17"/><rect class="cls-20" x="315.74" y="569.11" width="25.17" height="16.33" rx="8.17"/><rect class="cls-20" x="344.74" y="569.11" width="25.17" height="16.33" rx="8.17"/><rect class="cls-20" x="372.74" y="591.11" width="25.17" height="16.33" rx="8.17"/><rect class="cls-20" x="344.74" y="591.11" width="25.17" height="16.33" rx="8.17"/><rect class="cls-20" x="372.74" y="613.11" width="25.17" height="16.33" rx="8.17"/><rect class="cls-20" x="344.74" y="613.11" width="25.17" height="16.33" rx="8.17"/><rect class="cls-20" x="315.74" y="393.11" width="25.17" height="16.33" rx="8.17"/><path class="cls-10" d="M211.42,608.79l-2.3,7a26.52,26.52,0,0,1-20.89,13.25l-12.13-.28c-1.85,0-3.49.11-3.55,2.61-.35,12.23-.4,24.38,8.52,34.32,8.11,11.57,19.54,18.63,32.4,23.73,0,1.74.09,3.48.14,5.22l-4.89.11-10.08-5.1-8.22-5.53a74.25,74.25,0,0,1-17.21-17.54c-2.5-5-4.94-10-6-15.52-.29-1.55-.56-3.09-2.53-3.35-9.11-1.22-16.63-7-25.45-9-6.42-3.74-12.41-8-16.9-14l0-.2c-.38-1-.75-2-1.12-3-.26-5.3-2.92-7-8.23-6.63-7.46.5-15,.1-22.48.09-.53-7.67,2.4-14.35,6-20.85,6.61-8.24,15-13.6,25.49-15.3l4.59-.21c8.11,2.85,12.55-.17,17.16-7.57,9.86-15.84,25.08-23.5,44-23.3a59.73,59.73,0,0,1,21.17,6.59c12.86,8.45,24.43,19.57,29.06,34.14,2.16,2.37,2.18,18.63,2,19m-106,23.9c.24.52.47,1,1.09.34l-.79-.63c-2-4.94-4.5-9.62-5.14-15.12-.58-5.06-5.13-3.27-7.85-2.86-3.72.55-1.1,3.56-.59,4.95A21,21,0,0,0,133.92,631.35ZM136.46,613c-4.49-1-4.63,1.39-3.71,5.29,3.18,13.44,12.5,20,25.06,23.45,4.84,1.35,4.46-1.09,4.45-4.24,0-2.78-2.19-2.76-3.86-3.47-8.2-3.45-14.53-8.78-16.75-17.74C140.93,613.46,139.67,612.39,136.46,613Z"/><path class="cls-4" d="M244.9,664.45c.06-2.43-1.78-15-1.73-17.44,0-1.47-.07-3-.1-4.43L244.12,632a16.36,16.36,0,0,1,2.51-9.56q2.16-5,4.33-9.88l7.21-10.7c1.39-1.17,1.73-2.44,3.34-4.18a170.81,170.81,0,0,1,20-15l6.49-2.44c5.8-1.42,11.83-1.58,17.61-2.65,16-3,29.76,2.81,42.93,10.32,8.14,4.64,14.09,12.2,19.11,20.27-.07.71,13.28,41.19,8.28,48.19m0,0c.14,5.48-1,8-3,13-3,4-7,8-17,10-20.49-.05-43-40-38,17,0,1-2,2.17-7,1,4.18-2.78-3-34-10-27-6,3-24,1-32-2-8,1-5,1-15,0-2.35-.24-8.94,1.46-9-2-.5-1.65-.68,1.61,0,0v-2"/><rect class="cls-20" x="344.74" y="393.11" width="25.17" height="16.33" rx="8.17"/><g id="Capa_2-2" data-name="Capa 2"><g id="Capa_1-2-2" data-name="Capa 1-2"><path class="cls-21" d="M729.78,444.12c17.21,12.08,13.91,34.73,23,40,8.31,4.81-27.5,3.44-44-9.49-19-14.91-9.26-26.53-20-38.22C678.52,425.21,705.22,426.89,729.78,444.12Z"/><path class="cls-21" d="M631.72,406.25c3.8,5.14.38,11.59,2.5,14,1.95,2.18-8.56-1.44-12.08-6.77-4-6.14.12-8.76-1.8-13.17C618.51,396,626.3,398.91,631.72,406.25Z"/><path class="cls-21" d="M733.84,420.76c3.82,5.14.38,11.59,2.5,14,2,2.18-8.55-1.44-12.07-6.74-4.06-6.15.12-8.76-1.8-13.18S728.41,413.42,733.84,420.76Z"/><path class="cls-21" d="M654.12,411.41c-2.5,5.75-10.25,6.84-11.19,9.8-.86,2.69-3.54-7.28-.73-12.95,3.25-6.54,7.94-4.84,10.86-8.8C655.86,395.66,657.64,403.15,654.12,411.41Z"/><ellipse class="cls-22" cx="640.61" cy="457.77" rx="20.99" ry="35.69" transform="translate(-106.32 208.72) rotate(-17.11)"/><ellipse class="cls-23" cx="689.9" cy="461.01" rx="23.02" ry="17.26" transform="translate(-66.25 802.66) rotate(-58.07)"/><path class="cls-24" d="M679.35,471.58c-7,1.63-24.65-3.15-24.65-3.15-.31-95.07,38-115.44,59.13-115.87,32-.68,49.52,23.75,53.54,110.73l-14.08,1.65c-3.57-16.11-8.54-98.65-33-97.71-11.54.43-48.29,2.86-40.94,99.55Z"/><path class="cls-21" d="M756.23,425.92c-2.48,5.78-10.26,6.84-11.17,9.78-.86,2.69-3.54-7.28-.73-12.94,3.24-6.54,7.94-4.85,10.85-8.81C758,410.16,759.76,417.66,756.23,425.92Z"/><ellipse class="cls-25" cx="748.89" cy="461.8" rx="27.29" ry="24.98"/><ellipse class="cls-26" cx="814.05" cy="458.58" rx="16.73" ry="15.31"/><ellipse class="cls-27" cx="780.58" cy="461.8" rx="16.73" ry="15.31"/><path class="cls-24" d="M593,457.31c-1.7,3.29,5.13,9.55,10.64,22.53,8.87,20.93,9.77,43.36,21.29,49.91,14.12,8,52.26,13.61,96.88,12.64,33.54-.74,84.52-1.84,93.29-13.15,13-16.78,20.83-36,28-59.71,2.48-8.22,8.14-17.28,3.46-21-5.71-4.47-22.05,1.4-26.41,3.29-41.52,18.08-109.85,21.35-140.8,19.72C633.08,469.15,596.57,450.48,593,457.31Z"/><ellipse class="cls-28" cx="776.95" cy="452.91" rx="4.86" ry="4.45"/><ellipse class="cls-28" cx="742.73" cy="448.1" rx="8.8" ry="8.06"/><ellipse class="cls-28" cx="629.79" cy="433.72" rx="8.92" ry="4.32" transform="translate(46.61 928.34) rotate(-74.86)"/><ellipse class="cls-29" cx="608.91" cy="419.9" rx="8.8" ry="8.87"/><ellipse class="cls-29" cx="608.02" cy="445.69" rx="6.17" ry="5.64"/><ellipse class="cls-29" cx="593.06" cy="433.6" rx="7.05" ry="6.45"/><ellipse class="cls-28" cx="692.86" cy="448.91" rx="7.72" ry="5.07" transform="translate(-41.24 826.63) rotate(-60.17)"/><ellipse class="cls-30" cx="817.51" cy="430.7" rx="7.75" ry="15" transform="translate(90.15 1000.59) rotate(-65.86)"/><ellipse class="cls-31" cx="789.38" cy="432.78" rx="7.44" ry="6.01" transform="translate(-36.64 790.71) rotate(-52.16)"/><ellipse class="cls-31" cx="699.58" cy="411.85" rx="5.95" ry="7.51" transform="translate(-88.71 605.82) rotate(-44.31)"/><ellipse class="cls-29" cx="780.58" cy="414.26" rx="7.92" ry="8.06"/><ellipse class="cls-32" cx="804.36" cy="406.2" rx="8.8" ry="8.06"/><path class="cls-33" d="M629.8,503q12.45,11,24.4,22.56c1,.94,2.52-.49,1.55-1.43q-11.93-11.52-24.39-22.56C630.34,500.66,628.79,502.08,629.8,503Z"/><path class="cls-33" d="M642.93,480.33,690,519.27l13.31,11c1,.86,2.61-.56,1.56-1.43l-47.09-38.92-13.3-11c-1-.87-2.61.56-1.56,1.43Z"/><path class="cls-33" d="M693.26,484.44l26.71,18c8.59,5.79,17.21,11.55,25.63,17.57q7.11,5,14,10.42c1.07.84,2.63-.59,1.55-1.44-16.44-12.91-34.21-24.36-51.63-36.11l-15.09-10.2c-1.13-.77-2.19,1-1.1,1.75Z"/><path class="cls-33" d="M737.53,482l46.65,31,13.29,8.84a1,1,0,0,0,1.1-1.74l-46.65-31.05-13.28-8.84a1,1,0,0,0-1.11,1.74Z"/><path class="cls-33" d="M778.62,479l33.69,22.5a1,1,0,0,0,1.11-1.74l-33.7-22.5a1,1,0,0,0-1.11,1.74Z"/><path class="cls-33" d="M808.24,469.82a56.42,56.42,0,0,1,14.18,9.68c1,.93,2.54-.49,1.55-1.42a58.14,58.14,0,0,0-14.65-10c-1.25-.6-2.36,1.14-1.11,1.75Z"/><path class="cls-33" d="M799.53,508.57a140.25,140.25,0,0,1-20.38,17.34c-1.11.78,0,2.54,1.11,1.75A143.63,143.63,0,0,0,801.08,510c.94-1-.61-2.4-1.55-1.43Z"/><path class="cls-33" d="M822.36,468.31c-11,9.27-23,17.3-35.29,25.05q-19,12.06-38.55,23.58-11,6.52-22.22,12.87c-1.2.67-.1,2.43,1.11,1.74q19.9-11.31,39.43-23.18c12.7-7.73,25.41-15.5,37.62-23.91a242.33,242.33,0,0,0,19.46-14.74c1-.88-.52-2.3-1.56-1.43Z"/><path class="cls-33" d="M764.33,480.79q-16,9.46-31.85,19.17T701,519.58q-8.85,5.63-17.67,11.32a1,1,0,1,0,1.1,1.74q15.57-10,31.32-19.89t31.63-19.45l18.07-10.78c1.19-.67.09-2.44-1.11-1.74Z"/><path class="cls-33" d="M714,483.76a207.8,207.8,0,0,1-25.74,17.52c-9.25,5.49-18.68,10.73-28,16.05l-16.48,9.37c-1.2.67-.1,2.43,1.11,1.75l29.55-16.8c9.12-5.19,18.3-10.35,27-16.1a168.88,168.88,0,0,0,14.17-10.33c1.06-.86-.5-2.29-1.55-1.43Z"/><path class="cls-33" d="M667.39,484.13a199.79,199.79,0,0,1-33.15,21.57q-5,2.58-10.14,4.89c-1.27.57-.16,2.32,1.1,1.74a204.59,204.59,0,0,0,34.78-20q4.59-3.27,9-6.79c1.07-.85-.49-2.27-1.55-1.43Z"/><path class="cls-33" d="M644.36,475.37a48.2,48.2,0,0,1-16.84,11.85c-1.28.54-.17,2.28,1.11,1.75a49.82,49.82,0,0,0,17.31-12.17,1.06,1.06,0,0,0-1.56-1.43Z"/></g></g></g></g></svg>