<svg xmlns="http://www.w3.org/2000/svg" viewBox="0 0 440 341"><defs><style>.cls-1{fill:#6db802;}.cls-2{fill:#fecd00;}.cls-3{fill:#a51619;}.cls-4{fill:#dfc33c;}.cls-5{fill:#ff6501;}.cls-6{fill:#f66;}.cls-7{fill:#9aa166;}.cls-8{fill:#f2f2f2;}.cls-9{fill:#7f2880;}.cls-10{fill:#989933;}.cls-11{fill:#9ec551;}.cls-12{fill:#cc3301;}.cls-13{fill:#927e19;}</style></defs><g id="Capa_2" data-name="Capa 2"><g id="Capa_1-2" data-name="Capa 1"><path class="cls-1" d="M196.3,195c23.5,17.93,19,51.55,31.38,59.31,11.35,7.14-37.54,5.11-60.13-14.09-26-22.12-12.64-39.37-27.26-56.72C126.31,166.94,162.77,169.43,196.3,195Z"/><path class="cls-1" d="M62.4,138.81c5.2,7.63.52,17.2,3.42,20.72,2.66,3.23-11.69-2.14-16.49-10.05-5.54-9.12.16-13-2.46-19.55C44.37,123.63,55,127.92,62.4,138.81Z"/><path class="cls-1" d="M201.85,160.34c5.21,7.62.52,17.2,3.42,20.71,2.67,3.24-11.68-2.13-16.49-10-5.54-9.12.17-13-2.45-19.55C183.82,145.16,194.43,149.45,201.85,160.34Z"/><path class="cls-1" d="M93,146.46C89.58,155,79,156.61,77.72,161c-1.18,4-4.84-10.79-1-19.21,4.44-9.7,10.84-7.19,14.83-13.06C95.37,123.09,97.8,134.21,93,146.46Z"/><ellipse class="cls-2" cx="74.54" cy="215.27" rx="28.84" ry="52.64" transform="translate(-52.05 25.87) rotate(-14.66)"/><ellipse class="cls-3" cx="141.86" cy="220.05" rx="33.52" ry="24.02" transform="translate(-117.69 254.46) rotate(-64.74)"/><path class="cls-4" d="M127.45,235.76c-9.61,2.42-33.67-4.68-33.67-4.68C93.36,90,145.64,59.77,174.53,59.12c43.74-1,67.61,35.26,73.11,164.33l-19.23,2.45c-4.88-23.9-11.66-146.39-45.08-145-15.76.64-65.94,4.24-55.9,147.73Z"/><path class="cls-1" d="M232.42,168c-3.38,8.58-14,10.15-15.25,14.51-1.17,4-4.83-10.8-1-19.21,4.43-9.7,10.84-7.19,14.82-13.06C234.82,144.61,237.25,155.74,232.42,168Z"/><ellipse class="cls-5" cx="222.4" cy="221.25" rx="37.27" ry="37.07"/><ellipse class="cls-6" cx="311.37" cy="216.46" rx="22.84" ry="22.72"/><ellipse class="cls-7" cx="265.68" cy="221.25" rx="22.84" ry="22.72"/><path class="cls-4" d="M9.58,214.58c-2.33,4.89,7,14.17,14.53,33.44,12.11,31.06,13.33,64.35,29.07,74.07,19.27,11.9,71.35,20.19,132.29,18.75,45.8-1.09,115.41-2.73,127.38-19.51,17.77-24.91,28.44-53.36,38.21-88.61,3.38-12.2,11.11-25.65,4.72-31.11-7.8-6.64-30.11,2.08-36.06,4.89-56.69,26.82-150,31.68-192.26,29.26C64.27,232.15,14.41,204.45,9.58,214.58Z"/><ellipse class="cls-8" cx="260.72" cy="208.05" rx="6.63" ry="6.6"/><ellipse class="cls-8" cx="213.99" cy="200.92" rx="12.02" ry="11.96"/><ellipse class="cls-8" cx="59.78" cy="179.57" rx="13.17" ry="5.93" transform="translate(-128.75 196.21) rotate(-76.63)"/><ellipse class="cls-8" cx="432.79" cy="7.18" rx="7.21" ry="7.18"/><ellipse class="cls-9" cx="31.26" cy="159.06" rx="12.02" ry="13.16"/><ellipse class="cls-9" cx="30.05" cy="197.33" rx="8.42" ry="8.37"/><ellipse class="cls-9" cx="9.62" cy="179.39" rx="9.62" ry="9.57"/><ellipse class="cls-8" cx="145.89" cy="202.12" rx="11.26" ry="7.04" transform="translate(-99.08 248.23) rotate(-64.84)"/><ellipse class="cls-10" cx="316.12" cy="175.12" rx="11.32" ry="20.81" transform="translate(14.91 374.79) rotate(-62.53)"/><ellipse class="cls-11" cx="277.7" cy="178.19" rx="10.78" ry="8.41" transform="translate(-10.58 338.71) rotate(-61.8)"/><ellipse class="cls-11" cx="155.08" cy="147.1" rx="8.4" ry="10.78" transform="translate(-55.98 113.28) rotate(-34.38)"/><ellipse class="cls-9" cx="265.68" cy="150.69" rx="10.82" ry="11.96"/><ellipse class="cls-12" cx="298.14" cy="138.73" rx="12.02" ry="11.96"/><path class="cls-13" d="M59.79,282.37q17,16.38,33.31,33.48c1.33,1.4,3.45-.72,2.12-2.12q-16.29-17.1-33.31-33.48c-1.39-1.34-3.51.78-2.12,2.12Z"/><path class="cls-13" d="M77.72,248.74,142,306.53l18.18,16.36c1.43,1.28,3.56-.83,2.12-2.13L98,263,79.84,246.62c-1.43-1.29-3.56.83-2.12,2.12Z"/><path class="cls-13" d="M146.44,254.84l36.47,26.73c11.73,8.6,23.5,17.15,35,26.07,6.47,5,12.84,10.15,19.07,15.47,1.46,1.24,3.59-.87,2.12-2.13-22.45-19.16-46.71-36.16-70.5-53.6L148,252.25c-1.55-1.14-3,1.46-1.51,2.59Z"/><path class="cls-13" d="M206.89,251.21l63.7,46.08,18.14,13.12c1.57,1.14,3.07-1.47,1.51-2.59l-63.7-46.08L208.4,248.62c-1.57-1.13-3.07,1.47-1.51,2.59Z"/><path class="cls-13" d="M263,246.76,309,280.15c1.56,1.14,3.06-1.46,1.51-2.59L264.5,244.17c-1.56-1.14-3.06,1.46-1.51,2.59Z"/><path class="cls-13" d="M303.44,233.14a76.92,76.92,0,0,1,19.36,14.38c1.36,1.38,3.48-.74,2.12-2.12a79.59,79.59,0,0,0-20-14.85c-1.71-.89-3.23,1.69-1.52,2.59Z"/><path class="cls-13" d="M291.55,290.65a197.22,197.22,0,0,1-27.83,25.74c-1.52,1.16,0,3.76,1.51,2.6a201.29,201.29,0,0,0,28.44-26.22c1.28-1.44-.83-3.56-2.12-2.12Z"/><path class="cls-13" d="M322.73,230.91c-15,13.75-31.47,25.67-48.19,37.17q-26,17.9-52.64,35-15.09,9.68-30.35,19.09c-1.64,1-.13,3.61,1.52,2.59q27.18-16.79,53.84-34.4c17.34-11.48,34.7-23,51.37-35.48A336.44,336.44,0,0,0,324.85,233c1.42-1.31-.7-3.42-2.12-2.12Z"/><path class="cls-13" d="M243.49,249.42Q221.64,263.48,200,277.87T157,307q-12.1,8.34-24.14,16.79c-1.57,1.1-.08,3.7,1.51,2.59q21.26-14.92,42.76-29.52T220.33,268Q232.63,260,245,252c1.62-1,.12-3.63-1.51-2.59Z"/><path class="cls-13" d="M174.77,253.84c-10.91,9.7-22.88,18.09-35.14,26-12.64,8.14-25.51,15.92-38.3,23.82L78.82,317.56c-1.64,1-.14,3.61,1.51,2.59l40.35-24.92c12.46-7.7,25-15.36,36.86-23.9A236.27,236.27,0,0,0,176.89,256c1.45-1.28-.68-3.4-2.12-2.12Z"/><path class="cls-13" d="M111.12,254.39a271.45,271.45,0,0,1-45.27,32Q59,290.22,52,293.65c-1.73.85-.22,3.44,1.51,2.59A275.58,275.58,0,0,0,101,266.59q6.27-4.86,12.25-10.08c1.46-1.27-.67-3.38-2.12-2.12Z"/><path class="cls-13" d="M79.67,241.39a66.18,66.18,0,0,1-23,17.58c-1.75.8-.23,3.39,1.52,2.59a68.11,68.11,0,0,0,23.63-18.05c1.24-1.47-.88-3.6-2.12-2.12Z"/></g></g></svg>